<?xml version="1.0" standalone="no"?>
<!DOCTYPE svg PUBLIC "-//W3C//DTD SVG 20010904//EN"
 "http://www.w3.org/TR/2001/REC-SVG-20010904/DTD/svg10.dtd">
<svg version="1.0" xmlns="http://www.w3.org/2000/svg"
 width="140.000000pt" height="140.000000pt" viewBox="0 0 140.000000 140.000000"
 preserveAspectRatio="xMidYMid meet">

<g transform="translate(0.000000,140.000000) scale(0.100000,-0.100000)"
fill="#000000" stroke="none">
<path d="M420 1315 c-30 -8 -69 -12 -86 -9 -26 5 -35 0 -59 -28 -57 -68 -79
-147 -54 -201 14 -31 52 -49 85 -41 13 3 24 4 24 1 0 -3 -34 -58 -75 -121 -41
-63 -75 -124 -75 -136 0 -28 37 -63 58 -55 90 37 147 54 200 62 61 10 62 10
62 -14 0 -13 11 -35 25 -48 50 -51 143 -22 160 48 8 32 19 34 159 36 226 3
330 38 381 126 29 49 33 111 10 155 -14 28 -30 35 -64 30 -8 -1 -12 4 -8 13
40 103 31 133 -37 123 -23 -3 -54 -6 -69 -6 -30 0 -57 -11 -81 -36 -15 -14
-17 -14 -32 0 -18 19 -38 20 -67 4 -12 -6 -37 -11 -55 -9 -18 1 -38 -2 -45 -7
-7 -5 -29 -9 -50 -9 -21 -1 -47 -9 -57 -18 -12 -11 -20 -13 -25 -6 -3 6 -19
11 -35 11 l-30 0 22 45 22 45 -21 27 c-17 24 -28 28 -74 30 -30 1 -79 -5 -109
-12z m155 -29 c15 -23 14 -27 -26 -93 -23 -37 -84 -130 -135 -206 -52 -76 -94
-140 -94 -142 0 -6 141 42 151 52 6 6 17 28 24 49 l14 39 1 -53 c0 -29 -7 -66
-14 -81 -13 -24 -24 -29 -79 -39 -35 -5 -93 -22 -127 -36 -118 -47 -112 -28
80 258 157 232 160 238 128 231 -40 -9 -168 -61 -193 -79 -16 -11 -16 -17 -5
-50 6 -21 18 -40 26 -43 19 -7 9 -19 -22 -27 -56 -14 -82 53 -50 127 19 43 66
95 72 80 4 -9 17 -8 54 3 28 8 76 18 107 23 32 5 61 9 65 10 4 0 15 -10 23
-23z m565 -125 c-11 -34 -20 -79 -20 -99 l0 -37 33 39 c32 37 34 38 51 21 14
-15 17 -30 14 -72 -4 -44 -11 -60 -38 -88 -56 -58 -120 -75 -315 -85 -93 -5
-175 -10 -182 -10 -6 0 -17 -16 -23 -35 -22 -66 -83 -91 -117 -47 -31 38 -12
80 63 142 18 15 33 40 37 60 l7 33 -30 -41 c-18 -25 -38 -42 -50 -42 -36 0
-40 30 -19 135 11 55 22 102 25 107 8 13 54 9 54 -4 -1 -7 -9 -38 -20 -68 -11
-30 -19 -70 -20 -89 0 -29 2 -32 16 -20 22 18 49 74 68 141 13 41 22 57 39 62
27 7 39 -12 25 -38 -15 -28 -48 -156 -40 -156 4 1 17 9 30 20 17 14 27 39 37
95 18 92 19 95 52 95 26 0 27 -4 7 -67 -3 -10 2 -4 12 12 22 41 55 75 70 75
21 0 27 -20 14 -45 -15 -28 -7 -57 14 -49 8 3 20 19 26 35 14 34 64 79 87 79
9 0 25 -7 35 -17 17 -15 18 -15 18 1 0 18 40 39 52 27 4 -3 -2 -35 -12 -70z
m-722 -5 c-24 -36 -45 -65 -48 -65 -3 0 -15 14 -27 31 -18 26 -20 35 -10 45
11 11 103 51 120 52 4 1 -12 -28 -35 -63z m110 -94 c-7 -34 -16 -51 -31 -58
-13 -5 -25 -23 -30 -47 -9 -35 -34 -57 -67 -57 -4 0 24 47 63 105 39 58 71
105 72 105 1 0 -2 -22 -7 -48z"/>
<path d="M1031 1169 c-21 -23 -45 -97 -39 -125 7 -36 42 -22 65 26 41 84 24
152 -26 99z m10 -63 c-14 -36 -22 -33 -9 5 6 16 12 28 14 26 3 -2 0 -16 -5
-31z"/>
<path d="M840 1098 c-11 -18 -25 -57 -31 -88 -7 -30 -17 -61 -22 -67 -15 -21
-45 -15 -49 8 -3 21 -4 21 -30 -4 -17 -16 -28 -36 -28 -53 l0 -27 73 7 c319
30 447 79 447 170 0 47 -15 46 -40 -4 -24 -47 -54 -67 -76 -49 -8 6 -14 21
-14 33 -1 21 -1 21 -12 1 -40 -74 -90 -86 -114 -29 -9 20 -13 47 -10 60 7 27
3 29 -25 13 -27 -14 -52 7 -46 38 6 31 0 29 -23 -9z m70 -94 c0 -12 9 -33 20
-47 l21 -26 -23 -5 c-13 -3 -44 -8 -70 -11 l-47 -6 9 28 c5 15 14 47 20 70 10
41 11 41 40 30 21 -8 30 -18 30 -33z m160 -44 c0 -5 -7 -10 -16 -10 -8 0 -12
5 -9 10 3 6 10 10 16 10 5 0 9 -4 9 -10z"/>
<path d="M610 865 c-8 -9 -8 -15 -2 -15 12 0 26 19 19 26 -2 2 -10 -2 -17 -11z"/>
<path d="M590 822 c-22 -6 -39 -32 -33 -48 8 -21 31 -17 43 7 14 26 9 47 -10
41z"/>
<path d="M760 765 c-6 -15 -10 -30 -10 -35 0 -5 -5 -21 -10 -36 -10 -26 -11
-26 -30 -9 -17 15 -25 16 -45 7 -24 -11 -24 -12 -9 -48 8 -20 13 -38 11 -41
-3 -2 -10 12 -17 31 -13 41 -16 42 -48 18 -19 -15 -21 -22 -13 -50 11 -38 6
-39 -33 -8 -27 23 -28 26 -16 55 7 18 11 34 8 36 -3 3 -25 11 -49 18 -61 19
-110 3 -121 -39 -4 -16 -28 -47 -53 -70 -39 -36 -45 -47 -45 -82 0 -36 5 -45
49 -81 48 -40 49 -40 66 -21 17 19 18 19 51 -28 39 -54 40 -66 19 -198 -9 -53
-15 -98 -13 -99 2 -2 96 -11 209 -20 205 -16 206 -16 292 6 73 18 87 25 87 42
0 11 -12 116 -26 234 -14 118 -24 217 -21 219 2 3 18 -3 36 -13 25 -14 31 -25
31 -51 0 -45 26 -92 51 -92 11 0 31 11 44 24 l24 24 -35 53 c-19 29 -34 58
-34 65 0 16 -32 42 -58 46 l-23 3 26 35 c50 66 50 65 -6 101 l-52 33 -33 -37
c-38 -41 -46 -45 -42 -20 2 13 -9 20 -50 29 -29 7 -64 15 -77 18 -21 5 -27 2
-35 -19z m-310 -75 c0 -6 26 -35 57 -65 47 -45 54 -55 36 -55 -27 0 -34 -10
-38 -58 -1 -20 -6 -65 -10 -99 l-8 -63 -28 40 c-16 22 -29 46 -29 53 0 27 -14
27 -42 0 l-28 -27 -34 33 c-28 28 -33 37 -27 60 5 14 6 32 4 39 -6 15 -2 15
31 2 14 -5 26 -6 26 -2 0 4 13 16 28 26 29 19 34 44 18 93 -5 16 -2 23 11 26
30 8 33 7 33 -3z m65 -11 c5 -6 5 -13 -1 -19 -7 -7 -18 -2 -35 16 l-24 26 25
-7 c14 -4 29 -11 35 -16z m163 -12 c-5 -10 41 -39 51 -32 5 3 17 -5 25 -17 20
-28 20 -38 1 -38 -10 0 -12 6 -8 17 7 17 5 17 -21 0 -32 -21 -30 -22 -43 18
-6 17 -14 38 -19 49 -5 13 -3 17 5 15 7 -3 11 -8 9 -12z m-313 -65 l-28 -27
24 31 c13 17 26 30 28 27 3 -2 -8 -16 -24 -31z m258 4 c5 -15 6 -30 2 -34 -9
-9 -26 20 -20 36 2 6 0 12 -5 12 -6 0 -10 5 -10 11 0 20 24 3 33 -25z m-223 0
c0 -2 -8 -10 -17 -17 -16 -13 -17 -12 -4 4 13 16 21 21 21 13z"/>
<path d="M449 449 c-8 -16 -8 -24 1 -33 6 -6 11 -6 10 -1 -5 21 0 36 10 30 6
-3 7 1 4 9 -8 21 -11 20 -25 -5z"/>
</g>
</svg>
