<?xml version="1.0" standalone="no"?>
<!DOCTYPE svg PUBLIC "-//W3C//DTD SVG 20010904//EN"
 "http://www.w3.org/TR/2001/REC-SVG-20010904/DTD/svg10.dtd">
<svg version="1.0" xmlns="http://www.w3.org/2000/svg"
 width="312.000000pt" height="190.000000pt" viewBox="0 0 312.000000 190.000000"
 preserveAspectRatio="xMidYMid meet">

<g transform="translate(0.000000,190.000000) scale(0.100000,-0.100000)"
fill="#000000" stroke="none">
<path d="M990 1863 c-221 -33 -336 -57 -416 -85 -24 -8 -37 -7 -62 6 -68 35
-118 15 -195 -82 -100 -123 -145 -208 -173 -322 -25 -103 -10 -205 43 -282 53
-79 170 -108 273 -69 29 11 47 14 43 8 -4 -7 -89 -136 -188 -287 -262 -396
-269 -410 -262 -470 8 -64 30 -106 70 -130 48 -30 95 -25 199 21 207 92 382
139 518 139 37 1 76 7 90 15 14 8 27 14 30 15 3 0 6 -25 7 -55 5 -97 64 -184
150 -220 20 -8 65 -15 102 -15 142 0 233 81 301 267 15 40 20 40 375 48 270 6
452 18 555 36 355 64 558 195 639 412 26 72 29 235 5 316 -31 107 -119 166
-203 137 -23 -7 -41 -10 -41 -6 0 13 66 204 79 227 6 12 11 41 11 64 0 36 -6
47 -40 81 -38 35 -45 38 -101 38 -60 0 -119 -18 -150 -46 -13 -12 -22 -13 -38
-5 -11 6 -44 11 -74 11 -69 0 -155 -41 -216 -104 l-44 -45 -28 39 c-53 72
-138 77 -225 11 -46 -35 -52 -37 -70 -24 -14 11 -38 14 -95 10 -77 -5 -131
-24 -147 -52 -7 -14 -12 -14 -46 0 -31 13 -50 14 -103 6 -75 -11 -106 -29
-133 -74 -11 -18 -20 -27 -20 -22 0 6 -15 20 -33 33 -27 18 -47 22 -111 22
l-77 0 26 43 c15 23 42 74 62 114 l35 72 -16 54 c-11 37 -31 71 -62 106 l-46
51 -86 -1 c-48 -1 -98 -3 -112 -6z m178 -96 c29 -31 53 -92 45 -114 -27 -75
-622 -984 -756 -1156 -16 -21 -27 -40 -25 -43 3 -2 25 4 49 14 70 30 156 59
273 91 60 17 115 36 123 43 23 19 55 87 79 168 35 120 48 105 42 -46 -7 -146
-33 -246 -77 -293 -24 -25 -36 -29 -111 -36 -171 -14 -353 -65 -528 -146 -46
-22 -88 -39 -92 -39 -16 0 -50 53 -50 79 0 15 36 84 90 169 96 154 480 725
697 1039 73 106 133 195 133 198 0 8 -41 -2 -170 -42 -144 -44 -285 -100 -419
-166 l-103 -51 6 -50 c13 -95 26 -127 77 -181 27 -29 49 -55 49 -58 0 -15 -71
-39 -127 -44 -61 -6 -63 -5 -97 29 -56 56 -70 142 -41 253 21 78 62 154 137
248 52 65 66 77 87 75 20 -2 25 -8 23 -25 l-3 -22 68 20 c118 35 245 66 318
78 231 38 273 40 303 8z m1676 -199 c8 -13 3 -36 -18 -95 -75 -205 -118 -445
-82 -459 22 -9 40 8 97 93 72 106 112 111 158 19 48 -96 38 -246 -23 -351 -54
-92 -199 -196 -331 -239 -178 -57 -366 -76 -829 -85 l-358 -6 -19 -72 c-40
-161 -115 -242 -222 -243 -44 0 -70 12 -110 49 -63 58 -75 137 -33 219 29 57
72 101 194 199 51 42 94 85 97 97 2 11 11 56 19 98 9 42 18 89 21 105 4 15
-15 -13 -42 -63 -76 -143 -137 -204 -204 -204 -55 0 -89 44 -89 114 0 68 82
480 112 557 11 32 46 49 98 49 39 0 70 -20 70 -44 0 -7 -14 -43 -30 -80 -53
-117 -124 -416 -105 -446 46 -75 207 211 265 470 11 47 22 94 25 102 13 33
127 52 153 26 18 -18 15 -35 -24 -127 -31 -71 -55 -157 -112 -403 -5 -21 -8
-38 -6 -38 7 0 149 117 162 133 12 14 36 126 72 332 25 144 33 155 121 155 40
0 61 -4 65 -13 2 -7 -21 -89 -51 -181 -31 -93 -54 -170 -52 -172 2 -3 12 17
22 43 78 210 207 383 286 383 56 0 65 -73 19 -147 -16 -26 -30 -59 -30 -74 0
-49 45 -73 91 -49 10 6 38 50 61 97 55 112 131 192 206 217 29 10 64 15 77 12
31 -8 63 -41 83 -86 13 -28 16 -31 19 -15 12 66 28 107 46 117 58 30 114 33
131 6z m-1994 -23 c0 -2 -31 -48 -68 -102 -38 -54 -95 -138 -127 -186 -50 -75
-60 -85 -68 -70 -6 10 -34 41 -64 70 -41 40 -53 58 -53 82 0 17 -1 34 -2 39
-4 12 78 52 227 114 140 57 155 62 155 53z m212 -368 c-6 -23 -16 -67 -23 -97
-28 -127 -29 -130 -52 -130 -13 0 -37 -12 -55 -27 -26 -22 -37 -43 -51 -98
-22 -85 -43 -136 -62 -151 -16 -12 -148 -49 -154 -43 -2 3 40 67 93 144 53 77
144 213 202 301 58 89 107 157 109 152 2 -5 -2 -28 -7 -51z"/>
<path d="M2534 1451 c-61 -37 -114 -128 -144 -249 -24 -92 -25 -163 -5 -201
17 -34 37 -43 68 -32 104 40 229 407 163 480 -24 26 -42 26 -82 2z m-12 -202
c-16 -46 -36 -97 -45 -114 l-17 -30 6 45 c7 46 70 197 79 188 3 -3 -7 -43 -23
-89z"/>
<path d="M1994 1288 c-65 -78 -156 -316 -170 -447 -9 -76 -24 -97 -88 -117
-75 -24 -90 -16 -83 44 3 26 9 58 13 71 6 20 4 22 -9 15 -33 -19 -157 -148
-161 -168 -16 -80 -27 -148 -24 -152 2 -1 60 4 128 12 69 8 166 19 215 24 297
32 489 60 626 90 357 78 529 205 529 391 0 68 -15 101 -43 97 -17 -2 -33 -24
-67 -94 -25 -49 -53 -102 -64 -117 -48 -70 -140 -87 -180 -34 -17 23 -21 42
-20 97 l0 68 -28 -61 c-38 -80 -91 -151 -132 -176 -23 -14 -50 -21 -86 -21
-45 0 -56 4 -80 30 -44 47 -63 117 -58 213 3 45 8 91 13 101 7 15 -1 13 -37
-12 -64 -44 -116 -51 -152 -20 -25 21 -28 29 -27 91 0 37 5 76 11 87 16 29 6
24 -26 -12z m94 -278 l40 0 4 -57 c2 -34 14 -78 28 -106 26 -52 90 -117 116
-117 8 0 12 -4 9 -10 -3 -5 -21 -10 -40 -10 -19 0 -56 -4 -82 -9 -26 -5 -93
-14 -148 -21 -55 -6 -118 -14 -139 -17 l-39 -5 27 28 c29 32 30 36 46 141 9
67 25 127 52 195 l10 27 39 -19 c21 -11 56 -20 77 -20z m499 -206 c4 -12 -38
-34 -64 -34 -13 0 -12 5 7 25 24 26 50 30 57 9z m-977 -164 c0 -5 -7 -10 -15
-10 -8 0 -15 5 -15 10 0 6 7 10 15 10 8 0 15 -4 15 -10z"/>
<path d="M1285 534 c-53 -47 -53 -50 5 -33 31 9 39 18 44 42 3 17 5 31 4 33
-2 1 -25 -18 -53 -42z"/>
<path d="M1240 418 c-25 -5 -60 -21 -77 -34 -29 -22 -33 -30 -33 -74 0 -76 40
-102 92 -60 28 21 52 66 73 135 15 50 17 49 -55 33z"/>
</g>
</svg>
