<?xml version="1.0" encoding="UTF-8"?>
<svg version="1.1" xmlns="http://www.w3.org/2000/svg" width="200" height="200">
<path d="M0 0 C66 0 132 0 200 0 C200 66 200 132 200 200 C134 200 68 200 0 200 C0 134 0 68 0 0 Z " fill="#FDFDFD" transform="translate(0,0)"/>
<path d="M0 0 C2.44910127 3.17476091 3.71528517 5.1923157 4.43359375 9.21484375 C3.66432617 13.52274222 2.19133901 16.06626507 -0.19140625 19.71484375 C5.24464563 21.21334443 5.24464563 21.21334443 10.80859375 21.71484375 C11.42476563 21.22113281 12.0409375 20.72742188 12.67578125 20.21875 C15.33544493 18.34334612 16.72904523 18.45624451 19.93359375 18.65234375 C22.50059587 18.84389013 22.50059587 18.84389013 24.80859375 18.71484375 C25.46859375 18.05484375 26.12859375 17.39484375 26.80859375 16.71484375 C29.84511035 16.61303634 32.82965902 16.78470085 35.86328125 16.9375 C39.22688057 16.6832226 40.28421361 15.83575925 42.80859375 13.71484375 C45.87109375 13.33984375 45.87109375 13.33984375 48.80859375 13.71484375 C50.68359375 15.21484375 50.68359375 15.21484375 51.80859375 16.71484375 C54.37088042 15.48494615 56.61648307 14.17625087 58.99609375 12.58984375 C62.65774385 10.43872317 65.62579357 10.43440877 69.79296875 10.76953125 C72.12967815 10.88495875 72.12967815 10.88495875 74.80859375 8.71484375 C78.67062882 8.29353083 80.94255695 8.19522167 84.30859375 10.21484375 C86.14289275 13.27200875 85.92807355 15.29636298 85.3046875 18.75390625 C84.69159057 21.17732876 83.79221873 23.4197188 82.80859375 25.71484375 C82.80859375 26.70484375 82.80859375 27.69484375 82.80859375 28.71484375 C83.88109375 28.77671875 84.95359375 28.83859375 86.05859375 28.90234375 C89.80859375 29.71484375 89.80859375 29.71484375 92.18359375 32.08984375 C95.62429741 37.64790351 95.48213652 43.35876774 94.80859375 49.71484375 C92.15787412 58.23756112 86.93585678 63.53813358 79.30859375 67.83984375 C63.80534378 75.02061263 47.23973349 74.87346252 30.55859375 74.77734375 C29.02343897 74.77231418 27.48828259 74.76775387 25.953125 74.76367188 C22.23824705 74.75279214 18.52343116 74.73560952 14.80859375 74.71484375 C14.61136719 76.10316406 14.61136719 76.10316406 14.41015625 77.51953125 C13.56936244 81.98556589 11.81725278 85.0999417 8.234375 87.98046875 C4.09498114 90.62223922 0.77441798 91.43714546 -4.19140625 90.71484375 C-9.1045943 88.25824973 -11.18242396 85.79016743 -13.19140625 80.71484375 C-13.54035585 79.38551194 -13.87710398 78.05279105 -14.19140625 76.71484375 C-25.88814521 78.32954509 -36.81608302 80.20155926 -47.3515625 85.87890625 C-50.20761086 87.17655879 -52.23628622 86.53221738 -55.19140625 85.71484375 C-57.2179051 84.13965781 -58.07542104 83.23793633 -58.63571167 80.71102905 C-58.668666 74.71884795 -57.35208973 71.20365251 -53.88671875 66.37890625 C-53.22795242 65.40985855 -53.22795242 65.40985855 -52.55587769 64.42123413 C-51.1618488 62.380131 -49.74014258 60.36030375 -48.31640625 58.33984375 C-47.36787577 56.96225472 -46.42124201 55.58335768 -45.4765625 54.203125 C-43.7474161 51.68263213 -42.00818618 49.16990966 -40.25439453 46.66650391 C-38.87831015 44.69764472 -37.52384354 42.71349969 -36.19140625 40.71484375 C-37.18140625 41.20984375 -37.18140625 41.20984375 -38.19140625 41.71484375 C-43.36198132 42.35544597 -47.00077168 42.61389434 -51.25390625 39.40234375 C-55.14872913 33.99984749 -54.86705512 28.14136443 -54.19140625 21.71484375 C-52.06809977 14.86866864 -47.30623509 6.5916265 -41.19140625 2.71484375 C-38.73659081 2.52371185 -36.3556393 2.60544398 -33.89575195 2.70361328 C-29.50463817 2.72184847 -25.39010891 1.69488725 -21.12890625 0.71484375 C-5.05543687 -2.96477492 -5.05543687 -2.96477492 0 0 Z " fill="#2A2C35" transform="translate(84.19140625,10.28515625)"/>
<path d="M0 0 C4.64469584 0.92893917 6.56059451 1.71673724 10.3125 4.3125 C11.19550781 4.90675781 12.07851562 5.50101562 12.98828125 6.11328125 C13.98408203 7.04720703 13.98408203 7.04720703 15 8 C15 12.84260662 13.72729126 14.32951881 11 18.25 C10.2575 19.32765625 9.515 20.4053125 8.75 21.515625 C8.1725 22.33546875 7.595 23.1553125 7 24 C7.93457031 23.95875 8.86914062 23.9175 9.83203125 23.875 C13 24 13 24 15.6875 26 C18.00032694 29.00042414 18.95743633 31.28483459 20.11328125 34.8125 C21.4800233 38.18419844 23.57218479 40.98540981 25.6953125 43.921875 C26.98903517 45.98253506 27.56108502 47.62343594 28 50 C27.34 50 26.68 50 26 50 C26 50.66 26 51.32 26 52 C25.01 52.66 24.02 53.32 23 54 C23 54.99 23 55.98 23 57 C22.34 57 21.68 57 21 57 C21 57.66 21 58.32 21 59 C19.02 59 17.04 59 15 59 C14.80664062 58.38511719 14.61328125 57.77023438 14.4140625 57.13671875 C14.02347656 55.92435547 14.02347656 55.92435547 13.625 54.6875 C13.36976563 53.88699219 13.11453125 53.08648437 12.8515625 52.26171875 C12.01168189 49.77275472 12.01168189 49.77275472 10 47 C9.5859375 44.30078125 9.5859375 44.30078125 9.375 41.3125 C9.26285156 39.82169922 9.26285156 39.82169922 9.1484375 38.30078125 C9.07496094 37.16189453 9.07496094 37.16189453 9 36 C8.236875 35.71125 7.47375 35.4225 6.6875 35.125 C4 34 4 34 1 32 C1.41225912 35.8338198 1.83004517 39.66701567 2.25 43.5 C2.44589722 45.28833252 2.44589722 45.28833252 2.64575195 47.11279297 C3.40549835 53.9500696 4.21178225 60.77843513 5.08984375 67.6015625 C5.18107513 68.31370911 5.27230652 69.02585571 5.36630249 69.75958252 C5.81303824 73.23987239 6.26642683 76.71911156 6.72949219 80.19726562 C7.5914894 86.861361 8.21321406 93.28008087 8 100 C4.53537096 101.00240672 1.06909936 101.99805247 -2.40234375 102.9765625 C-4.35910266 103.53320836 -6.31373997 104.09896131 -8.25390625 104.7109375 C-22.01359108 108.81209626 -38.80476444 105.17495045 -52.8125 104 C-55.16206975 103.80680919 -57.51167889 103.61409674 -59.86132812 103.421875 C-65.57468486 102.95343506 -71.28752583 102.47907626 -77 102 C-76.69172821 99.16257565 -76.38155077 96.32538049 -76.0703125 93.48828125 C-75.98434814 92.69522583 -75.89838379 91.90217041 -75.80981445 91.08508301 C-75.14045912 85.00328936 -74.30629561 78.96438021 -73.3671875 72.91796875 C-72.54989131 67.2882361 -72.54989131 67.2882361 -74.75 62.17578125 C-75.4925 61.23089844 -76.235 60.28601563 -77 59.3125 C-81 54.18055556 -81 54.18055556 -81 52 C-81.66 52 -82.32 52 -83 52 C-83.2475 52.639375 -83.495 53.27875 -83.75 53.9375 C-85 56 -85 56 -86.6875 56.9609375 C-89.90206546 57.01523759 -91.34570042 55.44839487 -93.62084961 53.32861328 C-94.15846924 52.7870459 -94.69608887 52.24547852 -95.25 51.6875 C-96.06513062 50.86741455 -96.06513062 50.86741455 -96.89672852 50.03076172 C-99.96356047 46.72255651 -101.84440256 44.31567853 -101.9375 39.625 C-101.37848302 35.62192442 -100.41116272 32.29525572 -98 29 C-96.00854609 27.98308736 -94.00812926 26.98357352 -92 26 C-88.95611993 22.19514991 -87.46443214 18.602501 -86 14 C-82.94643165 10.94643165 -79.95732078 11.07364006 -75.75 10.75 C-71.25887099 11.0494086 -67.020459 11.90349455 -63 14 C-62 17 -62 17 -63 19.4375 C-64.13932609 22.35702312 -64.09962436 23.13878836 -63 26 C-61.39255122 27.75600676 -61.39255122 27.75600676 -59.4375 29.25 C-58.303125 30.1575 -57.16875 31.065 -56 32 C-56.99 28.7 -57.98 25.4 -59 22 C-57.43902526 20.8936781 -55.87614673 19.79004215 -54.3125 18.6875 C-53.44238281 18.07261719 -52.57226562 17.45773438 -51.67578125 16.82421875 C-44.57405567 11.98260437 -44.57405567 11.98260437 -41.9375 12.0625 C-39.42925669 13.27616612 -37.85557973 14.94560816 -36 17 C-35.896875 15.845 -35.79375 14.69 -35.6875 13.5 C-35.13964887 8.98828481 -33.7225121 5.19394251 -32 1 C-23.91700056 1.36740907 -16.63545993 2.25950761 -9 5 C-8.505 7.475 -8.505 7.475 -8 10 C-5.36 6.7 -2.72 3.4 0 0 Z " fill="#292833" transform="translate(141,87)"/>
<path d="M0 0 C-0.2703811 2.31255362 -0.5412289 4.62505069 -0.8125 6.9375 C-0.94507202 8.06792725 -0.94507202 8.06792725 -1.08032227 9.22119141 C-1.61069371 13.73047711 -2.14855869 18.23876378 -2.6953125 22.74609375 C-2.94278901 24.78905273 -3.1901828 26.83202173 -3.4375 28.875 C-3.56342529 29.91406494 -3.68935059 30.95312988 -3.8190918 32.02368164 C-4.51916871 37.84590722 -5.18940983 43.67027552 -5.82421875 49.5 C-5.95836182 50.73121582 -6.09250488 51.96243164 -6.23071289 53.23095703 C-6.48944989 55.62223158 -6.74524535 58.01382661 -6.99780273 60.40576172 C-7.11454346 61.48615723 -7.23128418 62.56655273 -7.3515625 63.6796875 C-7.45291504 64.63601074 -7.55426758 65.59233398 -7.65869141 66.57763672 C-8 69 -8 69 -9 72 C-23.85 71.505 -23.85 71.505 -39 71 C-38.505 71.99 -38.505 71.99 -38 73 C-48.01426535 72.47703281 -58.01255997 71.92041114 -68 71 C-66.85960382 60.29968686 -65.60824518 49.64179257 -64 39 C-63.34 39.99 -62.68 40.98 -62 42 C-60.84029533 38.520886 -60.50819404 35.12423935 -60.125 31.5 C-59.40255355 24.93702554 -58.48355376 18.42383159 -57.4296875 11.90625 C-57.29167725 11.04290039 -57.15366699 10.17955078 -57.01147461 9.29003906 C-56.67602022 7.1930861 -56.33825789 5.09650256 -56 3 C-49.31077128 2.56919649 -42.62129677 2.14237592 -35.93164062 1.71826172 C-33.65814524 1.5736612 -31.38470664 1.42816482 -29.11132812 1.28173828 C-25.83478247 1.07085728 -22.55804293 0.86324884 -19.28125 0.65625 C-17.76827332 0.55781799 -17.76827332 0.55781799 -16.22473145 0.45739746 C-10.8030383 0.11832844 -5.43225001 -0.06762137 0 0 Z " fill="#D53E6E" transform="translate(132,118)"/>
<path d="M0 0 C3.1875 -0.3125 3.1875 -0.3125 6 0 C6 3.98153882 5.33411608 6.33815823 4.0625 10.0625 C2.13916929 16.07035988 1.25203263 21.71178583 1 28 C3.64752004 25.42215154 5.94432065 23.08351902 8 20 C10.5 19.625 10.5 19.625 13 20 C16.2597444 24.88961659 15.4311395 30.28210079 15 36 C12.98528509 42.79966283 7.36287003 47.1262601 1.3359375 50.484375 C-18.05185818 59.36827059 -43.11151307 57.20192952 -64 57 C-63.92652344 58.35158203 -63.92652344 58.35158203 -63.8515625 59.73046875 C-64.00664492 63.14636321 -64.5039549 64.52756293 -66.375 67.3125 C-66.81585938 67.98925781 -67.25671875 68.66601562 -67.7109375 69.36328125 C-69 71 -69 71 -71 72 C-78.01599016 72.56580566 -78.01599016 72.56580566 -81.5 70.5625 C-83.78127197 66.66532705 -84.06784616 63.38682747 -83 59 C-80.24873871 54.46851082 -76.69322333 51.33222032 -72.1875 48.625 C-69.75339538 47.04774386 -69.09123661 46.26119509 -68.1171875 43.47265625 C-67.62056529 40.97905318 -67.24073935 38.53021973 -67 36 C-67.32613281 36.62648437 -67.65226562 37.25296875 -67.98828125 37.8984375 C-68.42527344 38.71570312 -68.86226562 39.53296875 -69.3125 40.375 C-69.95638672 41.59316406 -69.95638672 41.59316406 -70.61328125 42.8359375 C-72 45 -72 45 -75 47 C-78.125 47.1875 -78.125 47.1875 -81 47 C-82.61656957 45.38343043 -82.20994566 43.67720501 -82.25 41.4375 C-82.20414688 36.42640948 -81.5866104 31.66479366 -80.6875 26.75 C-80.56987305 26.0892749 -80.45224609 25.4285498 -80.33105469 24.74780273 C-79.43052532 20.14669651 -77.95444638 16.22642185 -76 12 C-73.69 12 -71.38 12 -69 12 C-69.61696869 16.28664705 -70.63609346 20.20573729 -72 24.3125 C-73.67809988 29.61432282 -74.62450135 34.46139496 -75 40 C-71.78245491 39.27944956 -71.78245491 39.27944956 -70.31640625 36.33203125 C-66.59373147 28.86180859 -63.79809053 21.78295464 -61.7265625 13.66796875 C-61 11 -61 11 -60 10 C-57.66702567 9.95907063 -55.33294775 9.95758277 -53 10 C-53.62020608 14.30267967 -54.64130992 18.24897793 -56 22.375 C-57.5594811 27.30770651 -58.59614021 31.85078763 -59 37 C-58.05125 36.175 -57.1025 35.35 -56.125 34.5 C-53.25 32 -53.25 32 -51 32 C-51.02707031 31.01644531 -51.05414063 30.03289063 -51.08203125 29.01953125 C-51.07885162 24.81076494 -50.4566627 20.81648782 -49.6875 16.6875 C-49.56955078 15.97271484 -49.45160156 15.25792969 -49.33007812 14.52148438 C-48.98787118 12.6595276 -48.50231532 10.82528571 -48 9 C-44.77208445 6.8480563 -43.71599191 6.79913557 -40 7 C-39.00564594 10.09354597 -39.12159004 11.90279155 -40 15 C-39.61328125 14.45730469 -39.2265625 13.91460937 -38.828125 13.35546875 C-38.30734375 12.64003906 -37.7865625 11.92460938 -37.25 11.1875 C-36.73953125 10.47980469 -36.2290625 9.77210937 -35.703125 9.04296875 C-33.97517642 6.97022309 -32.21473524 5.52624146 -30 4 C-28.68 4.66 -27.36 5.32 -26 6 C-26.74250597 10.08378283 -27.82923301 14.01939223 -29 18 C-26.5686132 17.87009168 -26.5686132 17.87009168 -24 17 C-22.52724783 14.88146376 -22.52724783 14.88146376 -21.5625 12.25 C-19.32255096 7.379332 -17.62604404 4.77562642 -13 2 C-9.3125 1.5 -9.3125 1.5 -6 2 C-4.0625 3.5 -4.0625 3.5 -3 5 C-2.443125 3.7625 -2.443125 3.7625 -1.875 2.5 C-1.25625 1.675 -0.6375 0.85 0 0 Z " fill="#F1F2F3" transform="translate(159,24)"/>
<path d="M0 0 C1.94921875 1.7109375 1.94921875 1.7109375 3 4 C2.56853931 7.72447012 1.45071384 10.28822811 -0.5625 13.421875 C-1.37460938 14.69478394 -1.37460938 14.69478394 -2.203125 15.9934082 C-2.79609375 16.9030835 -3.3890625 17.81275879 -4 18.75 C-4.61359375 19.70285889 -5.2271875 20.65571777 -5.859375 21.63745117 C-12.76947912 32.30406064 -19.94915119 42.78739737 -27.13671875 53.26806641 C-29.78957609 57.15767248 -32.4012055 61.07412223 -35 65 C-31.72010047 64.13536027 -28.45351816 63.22805958 -25.1875 62.3125 C-23.7943457 61.94608398 -23.7943457 61.94608398 -22.37304688 61.57226562 C-17.02109224 60.12987982 -17.02109224 60.12987982 -12.96875 56.5625 C-12.48921875 55.2940625 -12.48921875 55.2940625 -12 54 C-11.68675781 53.26136719 -11.37351563 52.52273437 -11.05078125 51.76171875 C-10.80714844 51.07722656 -10.56351563 50.39273438 -10.3125 49.6875 C-9.879375 48.470625 -9.44625 47.25375 -9 46 C-8.67 46 -8.34 46 -8 46 C-7.5418837 54.23336786 -7.65669923 60.81349431 -12 68 C-13.74551288 69.74551288 -16.30925009 69.5055365 -18.6875 69.8125 C-27.0387105 71.04494736 -35.60970504 72.73701731 -43.16015625 76.62890625 C-46 78 -46 78 -50 78 C-51.17193796 74.04230789 -51.21229084 72.42784432 -49.34790039 68.67041016 C-48.53216696 67.44797555 -47.69737598 66.23812204 -46.84765625 65.0390625 C-46.40067886 64.37929916 -45.95370148 63.71953583 -45.49317932 63.03977966 C-44.03188382 60.8903811 -42.54738334 58.75815354 -41.0625 56.625 C-40.05403937 55.14892469 -39.04737608 53.67161988 -38.04248047 52.19311523 C-36.01414824 49.21308629 -33.97755273 46.23901518 -31.93310547 43.27001953 C-27.78031533 37.23426937 -23.69859166 31.15184572 -19.625 25.0625 C-18.94832275 24.0636377 -18.27164551 23.06477539 -17.57446289 22.03564453 C-16.96465576 21.1279834 -16.35484863 20.22032227 -15.7265625 19.28515625 C-15.19627441 18.50019775 -14.66598633 17.71523926 -14.11962891 16.90649414 C-12.83119923 15.0810588 -12.83119923 15.0810588 -13 13 C-17.60291495 14.53073683 -19.54689171 18.22593825 -22.125 22.0625 C-26.76013514 28.88006757 -26.76013514 28.88006757 -29 30 C-35.70387244 22.88610478 -35.70387244 22.88610478 -36 18 C-34.68 17.34 -33.36 16.68 -32 16 C-32 15.34 -32 14.68 -32 14 C-33.98 14.99 -35.96 15.98 -38 17 C-38.46400792 22.80009895 -37.382003 25.34974588 -34 30 C-34 30.99 -34 31.98 -34 33 C-37.02453832 33.65273156 -39.90003914 34.10137566 -43 34 C-45.82633994 31.93194638 -46.70666416 30.43565331 -47.40625 27.01171875 C-47.99065615 18.78620222 -43.88246291 12.05362801 -38.8125 5.875 C-37.33203125 4.1796875 -37.33203125 4.1796875 -36 3 C-35.34 3 -34.68 3 -34 3 C-34 3.99 -34 4.98 -34 6 C-33.154375 5.73445313 -32.30875 5.46890625 -31.4375 5.1953125 C-27.96324135 4.11355469 -24.48217973 3.05593876 -21 2 C-19.9171875 1.64808594 -19.9171875 1.64808594 -18.8125 1.2890625 C-12.83279767 -0.48938345 -6.14711344 -0.9922837 0 0 Z " fill="#F4F4F5" transform="translate(81,14)"/>
<path d="M0 0 C4.64469584 0.92893917 6.56059451 1.71673724 10.3125 4.3125 C11.19550781 4.90675781 12.07851562 5.50101562 12.98828125 6.11328125 C13.98408203 7.04720703 13.98408203 7.04720703 15 8 C15 12.80134211 13.78562966 14.33006876 11.125 18.25 C10.40570313 19.32765625 9.68640625 20.4053125 8.9453125 21.515625 C8.30335938 22.33546875 7.66140625 23.1553125 7 24 C6.34 24 5.68 24 5 24 C7.31 24.99 9.62 25.98 12 27 C11.67 29.31 11.34 31.62 11 34 C8.75 34.375 8.75 34.375 6 34 C3.6875 31 3.6875 31 2 28 C1.505 29.485 1.505 29.485 1 31 C-1.64 31 -4.28 31 -7 31 C-7 30.01 -7 29.02 -7 28 C-7.66 28.66 -8.32 29.32 -9 30 C-11.42025982 30.31633204 -13.74437384 30.5154731 -16.17578125 30.6328125 C-16.89678513 30.67437469 -17.617789 30.71593689 -18.36064148 30.75875854 C-19.89456359 30.84536666 -21.42874729 30.92744108 -22.96313477 31.00537109 C-25.26579869 31.12262198 -27.56736209 31.25331825 -29.86914062 31.38671875 C-38.58989973 31.87433109 -47.26365732 32.12095145 -56 32 C-56.99 28.7 -57.98 25.4 -59 22 C-57.43902526 20.8936781 -55.87614673 19.79004215 -54.3125 18.6875 C-53.44238281 18.07261719 -52.57226562 17.45773438 -51.67578125 16.82421875 C-44.57405567 11.98260437 -44.57405567 11.98260437 -41.9375 12.0625 C-39.42925669 13.27616612 -37.85557973 14.94560816 -36 17 C-35.896875 15.845 -35.79375 14.69 -35.6875 13.5 C-35.13964887 8.98828481 -33.7225121 5.19394251 -32 1 C-23.91700056 1.36740907 -16.63545993 2.25950761 -9 5 C-8.505 7.475 -8.505 7.475 -8 10 C-5.36 6.7 -2.72 3.4 0 0 Z " fill="#455E8A" transform="translate(141,87)"/>
<path d="M0 0 C0.495 0.99 0.495 0.99 1 2 C-3.455 2.495 -3.455 2.495 -8 3 C-5.69 3.33 -3.38 3.66 -1 4 C-1 4.33 -1 4.66 -1 5 C-1.71800781 5.01417969 -2.43601563 5.02835938 -3.17578125 5.04296875 C-12.95316904 5.4934835 -21.86773224 7.84965642 -31.23510742 10.55688477 C-33 11 -33 11 -35 11 C-35 10.01 -35 9.02 -35 8 C-40.38632906 12.91106473 -46.48200287 19.59091464 -47.203125 27.12109375 C-47.2727265 30.5605677 -47.22676948 33.36504545 -46.0625 36.625 C-42.60424942 38.93050039 -38.92265931 37.75657161 -35 37 C-35.3609375 36.50371094 -35.721875 36.00742187 -36.09375 35.49609375 C-38.50770303 31.96233474 -39.92253561 29.47253277 -40.625 25.1875 C-40 22 -40 22 -37.625 20.0625 C-35 19 -35 19 -33 19 C-33 19.66 -33 20.32 -33 21 C-33.99 21.66 -34.98 22.32 -36 23 C-34.82819053 28.53946295 -33.53069584 30.69164052 -29 34 C-28.25234375 32.94039062 -27.5046875 31.88078125 -26.734375 30.7890625 C-25.74002522 29.40072507 -24.74520909 28.01272157 -23.75 26.625 C-23.01330078 25.57699219 -23.01330078 25.57699219 -22.26171875 24.5078125 C-21.77832031 23.8375 -21.29492188 23.1671875 -20.796875 22.4765625 C-20.35698242 21.85861816 -19.91708984 21.24067383 -19.46386719 20.60400391 C-17.80713672 18.78867383 -16.24363192 17.96215676 -14 17 C-13.505 18.485 -13.505 18.485 -13 20 C-14.42644364 22.4970706 -15.91378076 24.77750718 -17.5625 27.125 C-18.65858257 28.72585743 -19.75353312 30.32749023 -20.84765625 31.9296875 C-21.48590332 32.8587793 -22.12415039 33.78787109 -22.78173828 34.74511719 C-26.90860791 40.80052396 -30.9533915 46.91098972 -35.01144409 53.01263428 C-37.4112047 56.61958118 -39.81511485 60.22375943 -42.21875 63.828125 C-44.04814789 66.57189091 -44.04814789 66.57189091 -45.87182617 69.31945801 C-46.98381679 70.97589329 -48.13333687 72.60693401 -49.28320312 74.23730469 C-51.27186135 77.43748337 -51.35233995 79.30043049 -51 83 C-49.97261719 82.60167969 -48.94523437 82.20335938 -47.88671875 81.79296875 C-36.70311692 77.49793503 -26.05693689 73.75846241 -14 73 C-13.73445313 72.37351562 -13.46890625 71.74703125 -13.1953125 71.1015625 C-12.84210938 70.28429687 -12.48890625 69.46703125 -12.125 68.625 C-11.77695313 67.81289062 -11.42890625 67.00078125 -11.0703125 66.1640625 C-10 64 -10 64 -8 62 C-5.8359375 62.0234375 -5.8359375 62.0234375 -3.375 62.375 C-2.55773437 62.48585937 -1.74046875 62.59671875 -0.8984375 62.7109375 C-0.27195313 62.80632812 0.35453125 62.90171875 1 63 C1 67 1 67 -0.3125 68.60546875 C-0.869375 69.12753906 -1.42625 69.64960937 -2 70.1875 C-5.2356608 73.72913345 -5.62728365 76.27958365 -5.50390625 80.984375 C-4.87157463 83.5137015 -4.09033399 84.45849799 -2 86 C3.59738757 86.70208732 3.59738757 86.70208732 8.375 84.25 C11.33007364 80.15835958 12.21747415 76.99455629 13 72 C18.05367833 71.92577077 23.1070384 71.87136085 28.16113281 71.83520508 C29.87993905 71.82013067 31.59870691 71.79966771 33.31738281 71.77368164 C35.78980997 71.73723835 38.261728 71.72026042 40.734375 71.70703125 C41.50118591 71.69154739 42.26799683 71.67606354 43.05804443 71.66011047 C47.32234178 71.65876927 49.91928048 71.9228297 53 75 C49.43072615 76.18975795 46.20053028 76.12478155 42.48828125 76.09765625 C41.76005661 76.0962413 41.03183197 76.09482635 40.28153992 76.09336853 C37.95848461 76.08777659 35.63552612 76.07522562 33.3125 76.0625 C31.73632952 76.05748396 30.16015752 76.05292123 28.58398438 76.04882812 C24.72261902 76.0378098 20.86132592 76.02055074 17 76 C16.80277344 77.38832031 16.80277344 77.38832031 16.6015625 78.8046875 C15.76076869 83.27072214 14.00865903 86.38509795 10.42578125 89.265625 C6.28638739 91.90739547 2.96582423 92.72230171 -2 92 C-6.91318805 89.54340598 -8.99101771 87.07532368 -11 82 C-11.3489496 80.67066819 -11.68569773 79.3379473 -12 78 C-23.69673896 79.61470134 -34.62467677 81.48671551 -45.16015625 87.1640625 C-48.01620461 88.46171504 -50.04487997 87.81737363 -53 87 C-55.02649885 85.42481406 -55.88401479 84.52309258 -56.44430542 81.9961853 C-56.47725975 76.0040042 -55.16068348 72.48880876 -51.6953125 67.6640625 C-51.03654617 66.6950148 -51.03654617 66.6950148 -50.36447144 65.70639038 C-48.97044255 63.66528725 -47.54873633 61.64546 -46.125 59.625 C-45.17646952 58.24741097 -44.22983576 56.86851393 -43.28515625 55.48828125 C-41.55600985 52.96778838 -39.81677993 50.45506591 -38.06298828 47.95166016 C-36.6869039 45.98280097 -35.33243729 43.99865594 -34 42 C-34.99 42.495 -34.99 42.495 -36 43 C-41.17057507 43.64060222 -44.80936543 43.89905059 -49.0625 40.6875 C-52.95732288 35.28500374 -52.67564887 29.42652068 -52 23 C-49.87669352 16.15382489 -45.11482884 7.87678275 -39 4 C-36.54518456 3.8088681 -34.16423305 3.89060023 -31.7043457 3.98876953 C-27.31323192 4.00700472 -23.19870266 2.9800435 -18.9375 2 C-12.46527625 0.5183463 -6.65340604 -0.21440986 0 0 Z " fill="#282932" transform="translate(82,9)"/>
<path d="M0 0 C15.40480235 -0.36678101 30.65053579 0.76653162 46 2 C45.69349173 5.77134561 45.37876767 9.54196127 45.0625 13.3125 C44.97548828 14.38435547 44.88847656 15.45621094 44.79882812 16.56054688 C44.71181641 17.58857422 44.62480469 18.61660156 44.53515625 19.67578125 C44.456604 20.62364502 44.37805176 21.57150879 44.29711914 22.5480957 C44 25 44 25 43 28 C28.15 27.505 28.15 27.505 13 27 C13.33 27.66 13.66 28.32 14 29 C3.98573465 28.47703281 -6.01255997 27.92041114 -16 27 C-15.68889371 24.14567529 -15.37615574 21.29154475 -15.0625 18.4375 C-14.97548828 17.63763672 -14.88847656 16.83777344 -14.79882812 16.01367188 C-14.54106726 13.67473068 -14.27104335 11.33743344 -14 9 C-13.89147705 7.95223389 -13.89147705 7.95223389 -13.78076172 6.88330078 C-13.59036538 5.24589231 -13.30443141 3.62008604 -13 2 C-12.34 1.67 -11.68 1.34 -11 1 C-10.75076542 8.93396732 -11.29005228 16.2441657 -13 24 C-11.02 23.67 -9.04 23.34 -7 23 C-7.66 21.02 -8.32 19.04 -9 17 C-1.60701719 16.87469521 5.63114321 17.37946469 13 18 C6.07 16.02 -0.86 14.04 -8 12 C-8 11.67 -8 11.34 -8 11 C2.65827777 9.5401561 13.2558729 8.54292132 24 8 C24 7.67 24 7.34 24 7 C22.85402344 6.90203125 21.70804688 6.8040625 20.52734375 6.703125 C18.99731172 6.55293781 17.4673681 6.40184795 15.9375 6.25 C15.18533203 6.188125 14.43316406 6.12625 13.65820312 6.0625 C8.18061597 5.49340004 4.61320294 4.01420431 0 1 C0 0.67 0 0.34 0 0 Z " fill="#8B284E" transform="translate(80,162)"/>
<path d="M0 0 C1.44197868 2.88395737 1.58833581 5.82430479 2 9 C6.64586892 8.51515724 6.64586892 8.51515724 11 7 C11.05607422 8.33804688 11.05607422 8.33804688 11.11328125 9.703125 C11.17902344 10.87359375 11.24476563 12.0440625 11.3125 13.25 C11.37050781 14.41015625 11.42851562 15.5703125 11.48828125 16.765625 C12.01711803 20.10819638 12.73772333 21.5497057 15 24 C20.16370534 23.72574485 20.16370534 23.72574485 24.25 20.8125 C26.03293349 17.94707117 27.5770093 15.05943001 29 12 C29.33 12 29.66 12 30 12 C30.495 16.455 30.495 16.455 31 21 C34.29300256 20.71612047 36.14502183 20.54005095 39 19 C41.49449765 15.55049593 43.28395835 11.88709433 45 8 C45.99 8 46.98 8 48 8 C48.89463221 16.23392975 48.89463221 16.23392975 46.9453125 20.08203125 C36.51338543 33.0232597 14.63220656 34.57984947 -0.85351562 36.32080078 C-18.60253519 38.15921696 -18.60253519 38.15921696 -26 38 C-25.97746049 32.92860986 -25.74258406 29.17130791 -22.0625 25.4375 C-19 23 -19 23 -17 23 C-17 24.98 -17 26.96 -17 29 C-14.69 28.34 -12.38 27.68 -10 27 C-9.91363281 26.34515625 -9.82726562 25.6903125 -9.73828125 25.015625 C-8.35697449 16.04346734 -5.80151152 7.15463374 0 0 Z " fill="#292B35" transform="translate(123,38)"/>
<path d="M0 0 C1.66796875 1.3984375 1.66796875 1.3984375 3.1875 3.375 C6.85234509 7.90740798 10.89029473 11.92718785 15.05859375 15.99609375 C17 18 17 18 17 19 C14.03 19.495 14.03 19.495 11 20 C10.88930176 20.83249268 10.77860352 21.66498535 10.66455078 22.52270508 C10.24954493 25.61538395 9.82757532 28.70700984 9.40087891 31.7980957 C9.21774721 33.13528125 9.03738375 34.47284898 8.85986328 35.81079102 C8.60399454 37.73552433 8.3372896 39.6588073 8.0703125 41.58203125 C7.91320801 42.73936768 7.75610352 43.8967041 7.59423828 45.08911133 C7 48 7 48 5 51 C3.49130977 48.90160347 1.99301643 46.79700219 0.5 44.6875 C0.07074219 44.09259766 -0.35851562 43.49769531 -0.80078125 42.88476562 C-4 38.33984375 -4 38.33984375 -4 35 C-4.66 35 -5.32 35 -6 35 C-7.7143618 36.95927063 -9.38405168 38.95880212 -11 41 C-15.5886083 38.87827625 -19.23536548 36.29885477 -22 32 C-22.74339927 27.6475172 -23.01221184 23.02442367 -21 19 C-20.28972656 19.01160156 -19.57945313 19.02320312 -18.84765625 19.03515625 C-17.92855469 19.04417969 -17.00945313 19.05320312 -16.0625 19.0625 C-14.68771484 19.07990234 -14.68771484 19.07990234 -13.28515625 19.09765625 C-11.03406673 19.25949049 -11.03406673 19.25949049 -10 18 C-10.66 18.33 -11.32 18.66 -12 19 C-13.99960012 19.039992 -16.00047242 19.04346799 -18 19 C-18.33 18.34 -18.66 17.68 -19 17 C-18.071875 16.4225 -17.14375 15.845 -16.1875 15.25 C-11.89577571 12.22054756 -10.40135087 10.45489692 -9 5.375 C-7.5133044 0.35740237 -4.96856811 -0.66453633 0 0 Z " fill="#0AA6B7" transform="translate(64,100)"/>
<path d="M0 0 C9.99003559 -0.77508897 9.99003559 -0.77508897 13.6875 2.0625 C15.34635449 5.77517433 15.55697262 7.96194853 15 12 C13.85677689 14.52790283 12.52583422 16.66356635 11 19 C13.64 19.66 16.28 20.32 19 21 C17.00624893 23.43680686 16.21152068 23.96915323 13 24.4375 C9.82169719 25.67981289 9.82169719 25.67981289 9.015625 28.44140625 C8.22162498 31.6133553 7.58863739 34.78393477 7 38 C6.79503906 38.86753906 6.59007812 39.73507813 6.37890625 40.62890625 C4.94432687 46.79265074 4.78404363 52.68927506 5 59 C9.35952235 59.4057887 9.35952235 59.4057887 13.125 57.4375 C15.43961959 54.42849453 17.19993584 51.34297629 19 48 C20.31581942 51.94745826 19.4384849 54.00009473 18.1015625 57.8359375 C16.38891028 61.2005096 14.31532893 62.30549855 11 64 C10.67 63.34 10.34 62.68 10 62 C7.88153715 61.31270746 7.88153715 61.31270746 5.4375 60.875 C4.61121094 60.70742187 3.78492187 60.53984375 2.93359375 60.3671875 C1.97646484 60.18542969 1.97646484 60.18542969 1 60 C0.67 60.99 0.34 61.98 0 63 C-0.495 56.565 -0.495 56.565 -1 50 C-1.433125 51.588125 -1.86625 53.17625 -2.3125 54.8125 C-3.95588235 60.83823529 -3.95588235 60.83823529 -7 63 C-9.63030653 63.98281432 -12.18789542 64.84065596 -14.875 65.625 C-15.58269531 65.8415625 -16.29039063 66.058125 -17.01953125 66.28125 C-20.65503602 67.37799446 -24.25515753 68.33914545 -28 69 C-25.45666033 64.04782421 -22.67804343 59.44336431 -19.34375 54.98046875 C-14.83414635 48.83901926 -10.65026365 42.51292857 -6.5 36.125 C-5.79230469 35.04347656 -5.08460937 33.96195313 -4.35546875 32.84765625 C-2.93876837 30.67469168 -1.52980904 28.49665918 -0.12890625 26.31347656 C1.34715964 24.01609511 2.83790433 21.73473081 4.34765625 19.45996094 C5.09704444 18.30448385 5.84576434 17.148573 6.59375 15.9921875 C7.27115234 14.96206543 7.94855469 13.93194336 8.64648438 12.87060547 C10.19634935 9.58357221 10.13419767 8.38330879 9 5 C8.505 3.515 8.505 3.515 8 2 C5.69 2 3.38 2 1 2 C0.67 1.34 0.34 0.68 0 0 Z " fill="#2A2B34" transform="translate(73,11)"/>
<path d="M0 0 C4.64469584 0.92893917 6.56059451 1.71673724 10.3125 4.3125 C11.19550781 4.90675781 12.07851562 5.50101562 12.98828125 6.11328125 C13.65214844 6.73589844 14.31601563 7.35851562 15 8 C15 12.80134211 13.78562966 14.33006876 11.125 18.25 C10.40570313 19.32765625 9.68640625 20.4053125 8.9453125 21.515625 C8.30335938 22.33546875 7.66140625 23.1553125 7 24 C6.34 24 5.68 24 5 24 C7.31 24.99 9.62 25.98 12 27 C11.67 29.31 11.34 31.62 11 34 C8.75 34.375 8.75 34.375 6 34 C3.6875 31 3.6875 31 2 28 C1.505 29.485 1.505 29.485 1 31 C-1.64 31 -4.28 31 -7 31 C-7 30.01 -7 29.02 -7 28 C-7.66 28.66 -8.32 29.32 -9 30 C-11.3828125 30.1953125 -11.3828125 30.1953125 -14.125 30.125 C-15.03507812 30.10695313 -15.94515625 30.08890625 -16.8828125 30.0703125 C-17.58148438 30.04710938 -18.28015625 30.02390625 -19 30 C-19 29.67 -19 29.34 -19 29 C-17.02 29 -15.04 29 -13 29 C-13.04125 28.05125 -13.0825 27.1025 -13.125 26.125 C-13.14484508 21.29272342 -12.05774196 16.69372996 -11 12 C-12.09699219 11.73445313 -13.19398437 11.46890625 -14.32421875 11.1953125 C-15.77869247 10.83873185 -17.23311698 10.4819504 -18.6875 10.125 C-19.40873047 9.95097656 -20.12996094 9.77695313 -20.87304688 9.59765625 C-24.72028845 8.64902134 -28.35715569 7.59509159 -32 6 C-31.01 5.67 -30.02 5.34 -29 5 C-29.99 4.67 -30.98 4.34 -32 4 C-32 3.01 -32 2.02 -32 1 C-23.91700056 1.36740907 -16.63545993 2.25950761 -9 5 C-8.67 6.65 -8.34 8.3 -8 10 C-5.36 6.7 -2.72 3.4 0 0 Z " fill="#3C4F72" transform="translate(141,87)"/>
<path d="M0 0 C0.495 1.485 0.495 1.485 1 3 C1.99 3.33 2.98 3.66 4 4 C2.34832443 7.5786304 0.21713508 10.74820188 -2 14 C-3.32 13.67 -4.64 13.34 -6 13 C-10.39719064 18.62007798 -14.74093983 24.27445024 -19 30 C-24.08441876 26.35248219 -25.79444959 24.14830711 -27 18 C-25.68 17.34 -24.36 16.68 -23 16 C-23 15.34 -23 14.68 -23 14 C-24.98 14.99 -26.96 15.98 -29 17 C-29.46400792 22.80009895 -28.382003 25.34974588 -25 30 C-25 30.99 -25 31.98 -25 33 C-28.02453832 33.65273156 -30.90003914 34.10137566 -34 34 C-36.82633994 31.93194638 -37.70666416 30.43565331 -38.40625 27.01171875 C-38.99065615 18.78620222 -34.88246291 12.05362801 -29.8125 5.875 C-28.33203125 4.1796875 -28.33203125 4.1796875 -27 3 C-26.34 3 -25.68 3 -25 3 C-25 3.99 -25 4.98 -25 6 C-24.154375 5.73445313 -23.30875 5.46890625 -22.4375 5.1953125 C-5.75182482 0 -5.75182482 0 0 0 Z " fill="#F2F2F3" transform="translate(72,14)"/>
<path d="M0 0 C2.4375 1.375 2.4375 1.375 4 3 C4 3.66 4 4.32 4 5 C3.34 5 2.68 5 2 5 C2.12375 6.3921875 2.12375 6.3921875 2.25 7.8125 C2.29451603 13.22119732 0.00003767 18.06240701 -2 23 C-1.01 23 -0.02 23 1 23 C-0.12962008 25.25924017 -1.43768421 27.31784729 -2.8125 29.4375 C-3.31394531 30.21996094 -3.81539062 31.00242187 -4.33203125 31.80859375 C-6.66136799 34.86891672 -8.69300894 36.73860179 -12.5 37.5 C-15 37 -15 37 -17.140625 34.89453125 C-19.41324148 31.35669761 -19.41812831 29.34867577 -19.25 25.1875 C-19.21390625 24.02605469 -19.1778125 22.86460938 -19.140625 21.66796875 C-19.09421875 20.78753906 -19.0478125 19.90710938 -19 19 C-19.99 18.67 -20.98 18.34 -22 18 C-21.38898438 17.60554688 -20.77796875 17.21109375 -20.1484375 16.8046875 C-17.6814712 14.73243581 -16.88542484 13.06599129 -15.625 10.125 C-12.21191105 3.00746085 -8.56978244 -1.2695974 0 0 Z " fill="#F1F2F3" transform="translate(153,26)"/>
<path d="M0 0 C0.73154297 0.01353516 1.46308594 0.02707031 2.21679688 0.04101562 C3.99902422 0.07596126 5.78086573 0.12975195 7.5625 0.1875 C7.8925 0.8475 8.2225 1.5075 8.5625 2.1875 C7.9128125 2.7753125 7.9128125 2.7753125 7.25 3.375 C3.42316926 7.48529969 2.18301596 11.15456603 1.5625 16.6875 C0.92334083 22.38666927 -0.34028424 26.09028424 -4.4375 30.1875 C-7.49407695 30.75798096 -10.37671194 30.71613352 -13.4375 30.1875 C-16.71925318 27.65781526 -18.12993777 26.11018669 -19.4375 22.1875 C-19.50552967 20.45954648 -19.52245645 18.72914635 -19.5 17 C-19.49097656 16.09894531 -19.48195313 15.19789063 -19.47265625 14.26953125 C-19.46105469 13.58246094 -19.44945313 12.89539063 -19.4375 12.1875 C-18.80585937 12.07148438 -18.17421875 11.95546875 -17.5234375 11.8359375 C-15.18314221 11.3667985 -15.18314221 11.3667985 -14.0625 8.8125 C-13.85625 7.94625 -13.65 7.08 -13.4375 6.1875 C-14.0975 5.1975 -14.7575 4.2075 -15.4375 3.1875 C-10.04113825 0.48577355 -5.99148437 -0.21378581 0 0 Z " fill="#D43E6E" transform="translate(109.4375,120.8125)"/>
<path d="M0 0 C-1.051875 0.7425 -1.051875 0.7425 -2.125 1.5 C-5.23084361 4.20073357 -7.39934736 7.04856276 -9.765625 10.390625 C-10.17296875 10.92171875 -10.5803125 11.4528125 -11 12 C-11.33 12 -11.66 12 -12 12 C-12 10.02 -12 8.04 -12 6 C-14.51943396 5.49187886 -17.04016873 4.99335466 -19.5625 4.5 C-20.26697266 4.35691406 -20.97144531 4.21382813 -21.69726562 4.06640625 C-22.74624023 3.86337891 -22.74624023 3.86337891 -23.81640625 3.65625 C-24.45006104 3.53056641 -25.08371582 3.40488281 -25.73657227 3.27539062 C-28.80313117 2.90228325 -31.91082655 3 -35 3 C-36.32 7.95 -37.64 12.9 -39 18 C-43 16 -43 16 -44 14 C-48.11526292 14.64173654 -51.30388435 16.86986158 -54.75 19.0625 C-55.65298828 19.62807617 -55.65298828 19.62807617 -56.57421875 20.20507812 C-58.05249143 21.13193163 -59.52666089 22.06532389 -61 23 C-60.34 26.3 -59.68 29.6 -59 33 C-63.00096579 30.99951711 -65.23360418 29.47775474 -68 26 C-67.875 22.9375 -67.875 22.9375 -67 20 C-66.814375 19.21625 -66.62875 18.4325 -66.4375 17.625 C-66.293125 17.08875 -66.14875 16.5525 -66 16 C-67.98 15.34 -69.96 14.68 -72 14 C-71.67 12.35 -71.34 10.7 -71 9 C-70.21625 9.639375 -69.4325 10.27875 -68.625 10.9375 C-64.52463686 14.1592139 -62.24936202 14.50800278 -57 14 C-52.81635892 12.47300996 -49.77939307 10.55756572 -47.75268555 6.50732422 C-47.4256665 5.6154541 -47.09864746 4.72358398 -46.76171875 3.8046875 C-46.42487061 2.90476074 -46.08802246 2.00483398 -45.7409668 1.07763672 C-45.37418823 0.04920654 -45.37418823 0.04920654 -45 -1 C-40.42850903 -1.14380328 -35.8569763 -1.28616881 -31.28540039 -1.42724609 C-29.73265395 -1.47536073 -28.17991927 -1.52385703 -26.62719727 -1.57275391 C-24.3856099 -1.64327576 -22.14398272 -1.71239041 -19.90234375 -1.78125 C-19.21663803 -1.80312378 -18.53093231 -1.82499756 -17.82444763 -1.84753418 C-4.63550815 -2.2475191 -4.63550815 -2.2475191 0 0 Z " fill="#F3F4F5" transform="translate(144,86)"/>
<path d="M0 0 C1.44197868 2.88395737 1.58833581 5.82430479 2 9 C4.475 9.495 4.475 9.495 7 10 C7.495 11.485 7.495 11.485 8 13 C7 14 7 14 3.5625 14.125 C0 14 0 14 -2 13 C-2.19335938 14.13179687 -2.38671875 15.26359375 -2.5859375 16.4296875 C-2.84854286 17.91153202 -3.11158648 19.39329892 -3.375 20.875 C-3.50132813 21.62136719 -3.62765625 22.36773437 -3.7578125 23.13671875 C-4.7734375 28.7734375 -4.7734375 28.7734375 -7 31 C-5.94039062 30.96519531 -4.88078125 30.93039063 -3.7890625 30.89453125 C-2.40105748 30.86639601 -1.01303537 30.83909557 0.375 30.8125 C1.07367188 30.78736328 1.77234375 30.76222656 2.4921875 30.73632812 C4.5234375 30.70703125 4.5234375 30.70703125 8 31 C8.66 31.99 9.32 32.98 10 34 C3.63387505 35.79094295 -2.54278251 36.58314404 -9.125 37.125 C-10.08792969 37.21136719 -11.05085938 37.29773438 -12.04296875 37.38671875 C-16.70896618 37.79106241 -21.31152235 38.11050284 -26 38 C-25.97746049 32.92860986 -25.74258406 29.17130791 -22.0625 25.4375 C-19 23 -19 23 -17 23 C-17 24.98 -17 26.96 -17 29 C-14.69 28.34 -12.38 27.68 -10 27 C-9.91363281 26.34515625 -9.82726562 25.6903125 -9.73828125 25.015625 C-8.35697449 16.04346734 -5.80151152 7.15463374 0 0 Z " fill="#282A33" transform="translate(123,38)"/>
<path d="M0 0 C2.475 0.99 2.475 0.99 5 2 C5 3.65 5 5.3 5 7 C4.19691406 7.20109375 3.39382812 7.4021875 2.56640625 7.609375 C1.71949219 8.06828125 0.87257813 8.5271875 0 9 C-0.89870016 11.89187204 -0.89870016 11.89187204 -1.0625 15.25 C-1.85701394 21.97737974 -3.11186502 24.89792909 -7.6875 29.8125 C-11.36897688 31.70298813 -14.87873878 32.19525434 -19 32 C-24.22147345 30.17248429 -26.26237824 28.12322317 -28.9375 23.3125 C-31.07128975 18.4848893 -32.21396407 14.22004549 -31 9 C-29.60058024 6.10947435 -27.94587115 3.55048111 -26 1 C-22.125 1.875 -22.125 1.875 -21 3 C-20.95936168 4.66617115 -20.957279 6.33388095 -21 8 C-22.65 8.33 -24.3 8.66 -26 9 C-25.69075786 11.10464793 -25.3774944 13.2087053 -25.0625 15.3125 C-24.88847656 16.48425781 -24.71445313 17.65601563 -24.53515625 18.86328125 C-24.07906969 22.01641403 -24.07906969 22.01641403 -23 25 C-20.23952457 25.92015848 -18.36637731 26.19267245 -15.5 26.25 C-14.33984375 26.28867188 -14.33984375 26.28867188 -13.15625 26.328125 C-10.45008165 25.91631677 -9.64810042 25.14752479 -8 23 C-6.60762888 19.13230244 -5.9444807 15.57001867 -5.6875 11.5 C-5.24039516 6.48726688 -3.17360072 3.82459574 0 0 Z " fill="#872B4D" transform="translate(116,124)"/>
<path d="M0 0 C1.32 0.66 2.64 1.32 4 2 C3.67 4.97 3.34 7.94 3 11 C3 8.97549079 3.59466775 6.97599474 4 5 C5.32 5 6.64 5 8 5 C8 9 8 9 7 11 C7.66 11 8.32 11 9 11 C8.67 12.98 8.34 14.96 8 17 C7.34 17 6.68 17 6 17 C8.31 17.99 10.62 18.98 13 20 C12.67 22.31 12.34 24.62 12 27 C9.75 27.375 9.75 27.375 7 27 C4.6875 24 4.6875 24 3 21 C2.67 21.99 2.34 22.98 2 24 C-0.64 24 -3.28 24 -6 24 C-6 23.01 -6 22.02 -6 21 C-7.65 21.33 -9.3 21.66 -11 22 C-10.67 19.69 -10.34 17.38 -10 15 C-9.01 14.67 -8.02 14.34 -7 14 C-7.66 13.67 -8.32 13.34 -9 13 C-9.375 10.75 -9.375 10.75 -9 8 C-6.1875 5.9375 -6.1875 5.9375 -3 4 C-1.16699091 1.89424357 -1.16699091 1.89424357 0 0 Z " fill="#454E73" transform="translate(140,94)"/>
<path d="M0 0 C0.33 0 0.66 0 1 0 C1.0586294 4.7359523 1.05753005 9.46845254 1.01660156 14.20458984 C1.00503142 16.15279778 1.0052895 18.10109659 1.01464844 20.04931641 C1.08124444 44.21256516 1.08124444 44.21256516 -7 55 C-7.66 55.99 -8.32 56.98 -9 58 C-9.66 58 -10.32 58 -11 58 C-8.0982491 28.22652378 -8.0982491 28.22652378 -6.9375 18.5625 C-6.73447266 16.86287109 -6.73447266 16.86287109 -6.52734375 15.12890625 C-5.93820636 11.63335776 -5.03256105 8.38902819 -4 5 C-3.67 5 -3.34 5 -3 5 C-2.67 6.98 -2.34 8.96 -2 11 C-1.34 7.37 -0.68 3.74 0 0 Z " fill="#2B2130" transform="translate(134,132)"/>
<path d="M0 0 C2.75 0.0625 2.75 0.0625 6 1 C8.17560037 4.14253387 9.58605662 6.89556382 10.91796875 10.44921875 C12.38793939 13.91452859 14.49158756 16.75708074 16.66015625 19.81640625 C17.9533192 21.92392254 18.55651688 23.58548082 19 26 C18.34 26 17.68 26 17 26 C17 26.66 17 27.32 17 28 C16.01 28.66 15.02 29.32 14 30 C14 30.99 14 31.98 14 33 C13.34 33 12.68 33 12 33 C12 33.66 12 34.32 12 35 C10.02 35 8.04 35 6 35 C5.80664062 34.38511719 5.61328125 33.77023438 5.4140625 33.13671875 C5.15367187 32.32847656 4.89328125 31.52023438 4.625 30.6875 C4.36976563 29.88699219 4.11453125 29.08648437 3.8515625 28.26171875 C3.01168189 25.77275472 3.01168189 25.77275472 1 23 C0.734375 20.37109375 0.734375 20.37109375 0.75 17.4375 C0.74484375 16.46683594 0.7396875 15.49617188 0.734375 14.49609375 C1 12 1 12 3 10 C3.45811675 8.02764667 3.45811675 8.02764667 3.625 5.875 C3.74875 4.59625 3.8725 3.3175 4 2 C2.68 1.34 1.36 0.68 0 0 Z " fill="#803D56" transform="translate(150,111)"/>
<path d="M0 0 C0.5775 0.928125 1.155 1.85625 1.75 2.8125 C3.9714163 5.95950642 4.36287941 6.4080121 7.6875 7.625 C11 9 11 9 11.9375 11.1875 C11.958125 11.785625 11.97875 12.38375 12 13 C12.66 13 13.32 13 14 13 C14.33 13.99 14.66 14.98 15 16 C11.76255602 19.23744398 1.61164871 17.98981646 -2.75390625 18.0625 C-5.83663148 18.0625 -8.91763475 18.04540309 -12 18 C-12.99 14.7 -13.98 11.4 -15 8 C-13.37615858 6.85252535 -11.75088944 5.7070709 -10.125 4.5625 C-9.22007813 3.92441406 -8.31515625 3.28632812 -7.3828125 2.62890625 C-3.53717026 0 -3.53717026 0 0 0 Z " fill="#197480" transform="translate(97,101)"/>
<path d="M0 0 C1 3 1 3 0 5.4375 C-1.15293109 7.86320535 -1.15293109 7.86320535 -0.875 10.0625 C-0.05045486 12.19250803 -0.05045486 12.19250803 2.0625 14.0625 C3.0215625 15.0215625 3.0215625 15.0215625 4 16 C4 16.99 4 17.98 4 19 C1.69 19 -0.62 19 -3 19 C-3 18.67 -3 18.34 -3 18 C-1.35 17.67 0.3 17.34 2 17 C1.5153125 16.52578613 1.030625 16.05157227 0.53125 15.56298828 C-1.65099737 13.42218263 -3.82555737 11.27373132 -6 9.125 C-6.763125 8.37863281 -7.52625 7.63226563 -8.3125 6.86328125 C-9.034375 6.14785156 -9.75625 5.43242188 -10.5 4.6953125 C-11.1703125 4.03547363 -11.840625 3.37563477 -12.53125 2.69580078 C-14 1 -14 1 -14 -1 C-17.45136841 -0.61135346 -17.45136841 -0.61135346 -21 1 C-22.08024273 2.92239114 -22.63554895 4.78581435 -23.2578125 6.8984375 C-24.84620722 11.39610256 -28.08013479 14.38675653 -32 17 C-27.32538149 17.32613618 -24.83325617 16.70582788 -21 14 C-22.75 17.875 -22.75 17.875 -25 19 C-26.875 19.1328125 -26.875 19.1328125 -29 19.125 C-30.051875 19.12886719 -30.051875 19.12886719 -31.125 19.1328125 C-33 19 -33 19 -35 18 C-36.03148113 26.19687224 -36.03148113 26.19687224 -33.21875 33.64453125 C-31.22982241 35.58793761 -29.2354436 37.34836645 -27 39 C-23.67364118 37.47427344 -22.04436998 36.06655496 -20 33 C-18.515 33.495 -18.515 33.495 -17 34 C-16.90847656 34.71542969 -16.81695312 35.43085938 -16.72265625 36.16796875 C-15.87165786 39.50296243 -14.46671273 41.54539173 -12.4375 44.3125 C-11.79683594 45.19550781 -11.15617187 46.07851562 -10.49609375 46.98828125 C-10.00238281 47.65214844 -9.50867188 48.31601563 -9 49 C-8.34 48.34 -7.68 47.68 -7 47 C-7 48.32 -7 49.64 -7 51 C-10.00343637 50.67440623 -10.90288795 50.11191572 -12.921875 47.78515625 C-13.52515625 46.88667969 -14.1284375 45.98820312 -14.75 45.0625 C-15.67039062 43.71865234 -15.67039062 43.71865234 -16.609375 42.34765625 C-18 40 -18 40 -18 38 C-18.66 38 -19.32 38 -20 38 C-20.2475 38.639375 -20.495 39.27875 -20.75 39.9375 C-22 42 -22 42 -23.6875 42.9609375 C-26.90206546 43.01523759 -28.34570042 41.44839487 -30.62084961 39.32861328 C-31.15846924 38.7870459 -31.69608887 38.24547852 -32.25 37.6875 C-33.06513062 36.86741455 -33.06513062 36.86741455 -33.89672852 36.03076172 C-36.96356047 32.72255651 -38.84440256 30.31567853 -38.9375 25.625 C-38.37848302 21.62192442 -37.41116272 18.29525572 -35 15 C-33.00854609 13.98308736 -31.00812926 12.98357352 -29 12 C-25.95611993 8.19514991 -24.46443214 4.602501 -23 0 C-17.34705336 -5.65294664 -6.49255261 -3.38560147 0 0 Z " fill="#1C4F5A" transform="translate(78,101)"/>
<path d="M0 0 C3.1509379 4.72640685 2.64631906 9.47262556 2 15 C-0.6627219 23.5230875 -5.86667958 28.81987352 -13.5 33.125 C-22.18789166 37.15563979 -32.43004363 39.94130718 -42 39 C-42.85271484 38.51273438 -42.85271484 38.51273438 -43.72265625 38.015625 C-47.11655138 36.50205256 -50.59068556 36.53016528 -54.25 36.375 C-54.99507813 36.33632812 -55.74015625 36.29765625 -56.5078125 36.2578125 C-58.3381524 36.16394892 -60.16904143 36.08090282 -62 36 C-62 35.67 -62 35.34 -62 35 C-61.16359985 34.970271 -61.16359985 34.970271 -60.31030273 34.93994141 C-31.96992256 34.60454747 -31.96992256 34.60454747 -7.5234375 21.84375 C-4.372056 18.02977034 -3.74730915 14.14420441 -3.4375 9.3125 C-3.09828393 4.19656786 -3.09828393 4.19656786 -2 2 C-1.34 2 -0.68 2 0 2 C0 1.34 0 0.68 0 0 Z " fill="#30303A" transform="translate(177,45)"/>
<path d="M0 0 C-1.65167557 3.5786304 -3.78286492 6.74820188 -6 10 C-7.32 9.67 -8.64 9.34 -10 9 C-14.39719064 14.62007798 -18.74093983 20.27445024 -23 26 C-28.08441876 22.35248219 -29.79444959 20.14830711 -31 14 C-29.68 13.34 -28.36 12.68 -27 12 C-27 11.01 -27 10.02 -27 9 C-6.78640777 0 -6.78640777 0 0 0 Z " fill="#2D2E37" transform="translate(76,18)"/>
<path d="M0 0 C5.98993047 -0.3152595 9.63560356 0.31780178 15 3 C15.07654536 7.51617599 15.10228696 11.59085217 14 16 C13.505 14.515 13.505 14.515 13 13 C10.68529088 12.27129528 8.3494053 11.60760482 6 11 C5.01 10.34 4.02 9.68 3 9 C2.67 10.32 2.34 11.64 2 13 C1.505 12.01 1.505 12.01 1 11 C-0.98 10.67 -2.96 10.34 -5 10 C-6.32 17.59 -7.64 25.18 -9 33 C-9.33 33 -9.66 33 -10 33 C-10.16032995 27.12123504 -9.6092534 21.76611905 -8.5 16 C-8.35691406 15.22527344 -8.21382812 14.45054688 -8.06640625 13.65234375 C-7.71727671 11.76704421 -7.35954684 9.88334061 -7 8 C-8.07145264 8.08302368 -8.07145264 8.08302368 -9.16455078 8.16772461 C-14.89071858 8.61100214 -20.61707513 9.05159991 -26.34375 9.48828125 C-29.99057235 9.76666076 -33.63668311 10.04899381 -37.28125 10.35546875 C-45.86752993 11.04758711 -54.39298306 11.1006015 -63 11 C-62.938125 12.155 -62.87625 13.31 -62.8125 14.5 C-62.79581862 19.78799653 -63.81849625 24.81107438 -64.86035156 29.96801758 C-65.83526686 34.86506554 -66.43190557 39.67454666 -66.69140625 44.66796875 C-67.04622623 47.34932988 -67.90965315 49.53467761 -69 52 C-69.33 52 -69.66 52 -70 52 C-70 48.7 -70 45.4 -70 42 C-69.34 42 -68.68 42 -68 42 C-68.03480469 41.44957031 -68.06960937 40.89914063 -68.10546875 40.33203125 C-68.43850012 30.10321049 -66.58209206 20.07181123 -65 10 C-62.36 10 -59.72 10 -57 10 C-56.67 9.34 -56.34 8.68 -56 8 C-54.68467285 8.01522705 -54.68467285 8.01522705 -53.34277344 8.03076172 C-44.0389 8.09038633 -34.79433305 7.80109777 -25.50683594 7.25537109 C-23.21071671 7.12273071 -20.91410545 7.00462138 -18.6171875 6.88671875 C-17.14578324 6.8029587 -15.67442664 6.71835619 -14.203125 6.6328125 C-12.88989258 6.55949707 -11.57666016 6.48618164 -10.22363281 6.41064453 C-6.85454178 6.22449765 -6.85454178 6.22449765 -4 4 C-4.33 5.32 -4.66 6.64 -5 8 C-2.36 8 0.28 8 3 8 C3.33 6.68 3.66 5.36 4 4 C4.556875 4.969375 5.11375 5.93875 5.6875 6.9375 C7.68035805 10.18991279 7.68035805 10.18991279 10.75 10.875 C11.4925 10.91625 12.235 10.9575 13 11 C13.33 8.69 13.66 6.38 14 4 C9.38 3.01 4.76 2.02 0 1 C0 0.67 0 0.34 0 0 Z " fill="#391E34" transform="translate(139,110)"/>
<path d="M0 0 C0.94875 0.04125 1.8975 0.0825 2.875 0.125 C2.875 4.09996816 2.21579533 6.41293954 0.9375 10.125 C-1.09843603 16.47740818 -1.88548931 22.47857826 -2.125 29.125 C-0.475 28.465 1.175 27.805 2.875 27.125 C1.25 32.875 1.25 32.875 -2.125 35.125 C-5.3125 35.25 -5.3125 35.25 -8.125 35.125 C-9.49452673 32.38594655 -9.25121361 30.15412668 -9.125 27.125 C-8.795 26.465 -8.465 25.805 -8.125 25.125 C-9.115 25.125 -10.105 25.125 -11.125 25.125 C-10.81755859 24.05572266 -10.81755859 24.05572266 -10.50390625 22.96484375 C-9.01879353 17.68523251 -7.73087654 12.57788884 -7.125 7.125 C-6.465 7.125 -5.805 7.125 -5.125 7.125 C-5.16625 6.34125 -5.2075 5.5575 -5.25 4.75 C-5.05795839 0.71712612 -3.942779 0.15771116 0 0 Z " fill="#F3F3F4" transform="translate(162.125,23.875)"/>
<path d="M0 0 C2.31 0 4.62 0 7 0 C6.38624109 4.27073905 5.36922801 8.16245166 4 12.25 C2.22315138 17.85737373 1.26487879 23.13293491 1 29 C2.65 28.34 4.3 27.68 6 27 C5.45738189 30.79832675 4.04889927 32.69272487 1 35 C-2.1875 35.3125 -2.1875 35.3125 -5 35 C-6.61656957 33.38343043 -6.20994566 31.67720501 -6.25 29.4375 C-6.20414688 24.42640948 -5.5866104 19.66479366 -4.6875 14.75 C-4.56987305 14.0892749 -4.45224609 13.4285498 -4.33105469 12.74780273 C-3.43052532 8.14669651 -1.95444638 4.22642185 0 0 Z " fill="#F5F5F6" transform="translate(83,36)"/>
<path d="M0 0 C1 1 1 1 1.375 3.75 C1.29031064 10.53926383 -1.78073412 18.16276781 -5.921875 23.45703125 C-8 25 -8 25 -10.25 24.75 C-10.8275 24.5025 -11.405 24.255 -12 24 C-12.56282729 15.77646797 -12.0259909 7.82691747 -6.52734375 1.234375 C-4.34498234 -0.52937489 -2.719985 -0.28631421 0 0 Z " fill="#2D2E37" transform="translate(154,30)"/>
<path d="M0 0 C5.33584785 0.61231041 5.33584785 0.61231041 8 2 C9.18281226 4.19103968 9.72248936 6.18182444 10.234375 8.61328125 C11.21347268 11.66546841 12.91186371 13.60203861 15 16 C12.6263603 16.50734284 10.25142575 17.00602386 7.875 17.5 C6.87726563 17.71462891 6.87726563 17.71462891 5.859375 17.93359375 C1.83943578 18.7612283 -1.89904899 19.15330658 -6 19 C-5.01 17.515 -5.01 17.515 -4 16 C-3.418498 13.66008046 -2.90470796 11.30289316 -2.4375 8.9375 C-1.09262436 2.18524871 -1.09262436 2.18524871 0 0 Z " fill="#F2F2F3" transform="translate(121,51)"/>
<path d="M0 0 C-1.63727692 14.00353318 -3.31585652 28.00203391 -5 42 C-5.33 42 -5.66 42 -6 42 C-5.86160047 37.87471501 -5.7130259 33.74985892 -5.5625 29.625 C-5.52318359 28.449375 -5.48386719 27.27375 -5.44335938 26.0625 C-5.38051758 24.38027344 -5.38051758 24.38027344 -5.31640625 22.6640625 C-5.27974854 21.62717285 -5.24309082 20.5902832 -5.20532227 19.52197266 C-5 17 -5 17 -4 15 C-3.77049681 12.795636 -3.58924067 10.58607827 -3.4375 8.375 C-3.35371094 7.18648438 -3.26992187 5.99796875 -3.18359375 4.7734375 C-3.09271484 3.40058594 -3.09271484 3.40058594 -3 2 C-3.763125 2.15597656 -4.52625 2.31195313 -5.3125 2.47265625 C-11.16164731 3.30913388 -17.04384023 3.35712696 -22.9453125 3.51757812 C-27.9859662 3.69956358 -32.27602704 4.02901804 -37 6 C-36.01 7.485 -36.01 7.485 -35 9 C-35.375 11.1875 -35.375 11.1875 -36 13 C-36.433125 12.195625 -36.86625 11.39125 -37.3125 10.5625 C-38.80474002 7.72153646 -38.80474002 7.72153646 -42 7 C-42 6.34 -42 5.68 -42 5 C-45.96 5 -49.92 5 -54 5 C-54 5.66 -54 6.32 -54 7 C-54.66 7 -55.32 7 -56 7 C-56 5.68 -56 4.36 -56 3 C-49.31077128 2.56919649 -42.62129677 2.14237592 -35.93164062 1.71826172 C-33.65814524 1.5736612 -31.38470664 1.42816482 -29.11132812 1.28173828 C-25.83478247 1.07085728 -22.55804293 0.86324884 -19.28125 0.65625 C-17.76827332 0.55781799 -17.76827332 0.55781799 -16.22473145 0.45739746 C-10.8030383 0.11832844 -5.43225001 -0.06762137 0 0 Z " fill="#BE466E" transform="translate(132,118)"/>
<path d="M0 0 C0.33 0 0.66 0 1 0 C0.53521257 10.78796083 -0.23380943 21.33426668 -2 32 C0.31 32 2.62 32 5 32 C3.68 32.66 2.36 33.32 1 34 C8.26 35.98 15.52 37.96 23 40 C23 40.33 23 40.66 23 41 C6.29157175 40.03644647 6.29157175 40.03644647 -2 39 C-0.515 42.465 -0.515 42.465 1 46 C-1.31 46 -3.62 46 -6 46 C-5.9278125 45.41476563 -5.855625 44.82953125 -5.78125 44.2265625 C-4.80006421 35.15059395 -4.90975592 26.11465257 -5 17 C-4.34 17.99 -3.68 18.98 -3 20 C-2.17042672 17.51128017 -1.75467633 15.55813012 -1.46484375 12.98828125 C-1.33432617 11.85229492 -1.33432617 11.85229492 -1.20117188 10.69335938 C-1.0706543 9.51483398 -1.0706543 9.51483398 -0.9375 8.3125 C-0.84662109 7.51521484 -0.75574219 6.71792969 -0.66210938 5.89648438 C-0.43852723 3.931315 -0.21888316 1.9656983 0 0 Z " fill="#AA4166" transform="translate(73,140)"/>
<path d="M0 0 C1.32 0.66 2.64 1.32 4 2 C3.25749403 6.08378283 2.17076699 10.01939223 1 14 C2.32 14.33 3.64 14.66 5 15 C4.01 15.495 4.01 15.495 3 16 C3 16.99 3 17.98 3 19 C0.69 19.33 -1.62 19.66 -4 20 C-6.29013653 16.5647952 -6.17842973 15.014669 -6 11 C-7.32 13.31 -8.64 15.62 -10 18 C-10.66 17.34 -11.32 16.68 -12 16 C-9.0073388 9.02172089 -6.1147481 4.55608682 0 0 Z " fill="#E8E8EA" transform="translate(129,28)"/>
<path d="M0 0 C0.78375 0.639375 1.5675 1.27875 2.375 1.9375 C6.49404421 5.17389188 8.75544426 5.26222779 14 5 C17.32186171 4.08885464 17.32186171 4.08885464 20 3 C20.33 4.32 20.66 5.64 21 7 C17.37 9.31 13.74 11.62 10 14 C10.66 17.3 11.32 20.6 12 24 C7.99903421 21.99951711 5.76639582 20.47775474 3 17 C3.125 13.9375 3.125 13.9375 4 11 C4.185625 10.21625 4.37125 9.4325 4.5625 8.625 C4.706875 8.08875 4.85125 7.5525 5 7 C3.02 6.34 1.04 5.68 -1 5 C-0.67 3.35 -0.34 1.7 0 0 Z " fill="#EFF3F3" transform="translate(73,95)"/>
<path d="M0 0 C-1.74456425 3.83993762 -4.10567981 7.23371225 -6.5 10.6875 C-6.90347656 11.28111328 -7.30695312 11.87472656 -7.72265625 12.48632812 C-10.757935 16.8789675 -10.757935 16.8789675 -13 18 C-14.03590338 16.93106782 -15.05333942 15.84421512 -16.0625 14.75 C-16.63097656 14.14671875 -17.19945312 13.5434375 -17.78515625 12.921875 C-19 11 -19 11 -18.78051758 9 C-17.63810071 6.07266845 -15.46664969 5.41781346 -12.7265625 4.16015625 C-11.68628906 3.70962891 -11.68628906 3.70962891 -10.625 3.25 C-9.93921875 2.93417969 -9.2534375 2.61835938 -8.546875 2.29296875 C-5.54780161 0.94513616 -3.32171498 0 0 0 Z " fill="#EEEFF0" transform="translate(65,26)"/>
<path d="M0 0 C0.495 0.99 0.495 0.99 1 2 C-3.455 2.495 -3.455 2.495 -8 3 C-5.69 3.33 -3.38 3.66 -1 4 C-1 4.33 -1 4.66 -1 5 C-1.71800781 5.01417969 -2.43601563 5.02835938 -3.17578125 5.04296875 C-12.95316904 5.4934835 -21.86773224 7.84965642 -31.23510742 10.55688477 C-33 11 -33 11 -35 11 C-35 8 -35 8 -33 6 C-28.69176849 3.53180762 -24.13319006 2.82854309 -19.3125 1.875 C-18.45205078 1.69324219 -17.59160156 1.51148438 -16.70507812 1.32421875 C-11.03052668 0.18674273 -5.78595079 -0.17586477 0 0 Z " fill="#32343C" transform="translate(82,9)"/>
<path d="M0 0 C2.1640625 0.0234375 2.1640625 0.0234375 4.625 0.375 C5.85089844 0.54128906 5.85089844 0.54128906 7.1015625 0.7109375 C7.72804688 0.80632812 8.35453125 0.90171875 9 1 C9 5.35259325 8.94168854 5.48907297 6.125 8.3125 C2.9659951 11.75462326 1.92776149 14.45396869 1 19 C0.34 19 -0.32 19 -1 19 C-1.33 19.66 -1.66 20.32 -2 21 C-3 20 -3 20 -3.0625 16.9375 C-3.041875 15.968125 -3.02125 14.99875 -3 14 C-3.66 13.67 -4.32 13.34 -5 13 C-4.505 12.484375 -4.01 11.96875 -3.5 11.4375 C-1.50979655 8.20341939 -1.9308261 5.73539036 -2 2 C-1.34 1.34 -0.68 0.68 0 0 Z " fill="#252731" transform="translate(74,71)"/>
<path d="M0 0 C1.4540625 0.680625 1.4540625 0.680625 2.9375 1.375 C-0.0625 3.375 -0.0625 3.375 -3.4375 5 C-9.0228755 8.14103569 -11.326425 13.82856742 -14.0625 19.375 C-15.7125 19.375 -17.3625 19.375 -19.0625 19.375 C-19.0625 17.395 -19.0625 15.415 -19.0625 13.375 C-17.7425 12.715 -16.4225 12.055 -15.0625 11.375 C-15.0625 10.055 -15.0625 8.735 -15.0625 7.375 C-14.4025 7.375 -13.7425 7.375 -13.0625 7.375 C-13.0625 6.715 -13.0625 6.055 -13.0625 5.375 C-9.28484548 1.91429155 -5.28341834 -1.58069483 0 0 Z " fill="#262831" transform="translate(149.0625,22.625)"/>
<path d="M0 0 C2.54947583 2.2160294 3.44415014 3.75462844 4.0625 7.0625 C4.21589844 7.85140625 4.36929688 8.6403125 4.52734375 9.453125 C4.68332031 10.29359375 4.83929688 11.1340625 5 12 C5.28037109 13.32257813 5.28037109 13.32257813 5.56640625 14.671875 C6.39410716 18.58464295 7 21.97450833 7 26 C5.35 26.33 3.7 26.66 2 27 C-2.06997388 18.01214101 -1.44706308 9.5867929 0 0 Z " fill="#C23D6A" transform="translate(154,113)"/>
<path d="M0 0 C1.46087515 2.92175029 0.59947647 4.79174691 -0.125 7.9375 C-0.35445312 8.99839844 -0.58390625 10.05929688 -0.8203125 11.15234375 C-2.27444426 14.662483 -3.76869315 15.17890242 -7 17 C-8.1526312 19.12923499 -8.1526312 19.12923499 -8.6875 21.5 C-9.52543729 24.58443173 -10.17714443 26.26571665 -12 29 C-15.625 29.6875 -15.625 29.6875 -19 30 C-17.49907746 25.57186389 -15.07246095 22.09163769 -12.3125 18.375 C-7.94902966 12.39448823 -3.88577197 6.30472936 0 0 Z " fill="#EFF0F1" transform="translate(76,41)"/>
<path d="M0 0 C0.69867188 0.15597656 1.39734375 0.31195313 2.1171875 0.47265625 C3.48230469 0.76462891 3.48230469 0.76462891 4.875 1.0625 C6.23238281 1.35833984 6.23238281 1.35833984 7.6171875 1.66015625 C10.01014125 2.23202157 10.01014125 2.23202157 12 1 C12.99 1.66 13.98 2.32 15 3 C14.79761719 3.66386719 14.59523438 4.32773438 14.38671875 5.01171875 C13.67686914 7.72818236 13.12489794 10.19194982 13 13 C15.22976163 15.98119541 15.22976163 15.98119541 18 18 C18 18.99 18 19.98 18 21 C15.69 21 13.38 21 11 21 C11 20.67 11 20.34 11 20 C12.65 19.67 14.3 19.34 16 19 C15.5153125 18.53102295 15.030625 18.0620459 14.53125 17.57885742 C12.34639363 15.45623795 10.1731471 13.3221031 8 11.1875 C7.236875 10.44951172 6.47375 9.71152344 5.6875 8.95117188 C4.965625 8.23896484 4.24375 7.52675781 3.5 6.79296875 C2.8296875 6.1383667 2.159375 5.48376465 1.46875 4.80932617 C0 3 0 3 0 0 Z " fill="#17434E" transform="translate(64,99)"/>
<path d="M0 0 C2.46446682 0.82786944 4.65572814 1.85178521 7 3 C6.67 5.31 6.34 7.62 6 10 C3.75 10.375 3.75 10.375 1 10 C-1.3125 7 -1.3125 7 -3 4 C-3.33 4.99 -3.66 5.98 -4 7 C-6.64 7 -9.28 7 -12 7 C-9.73786876 0.38761638 -6.82276385 -0.56856365 0 0 Z " fill="#B1456D" transform="translate(146,111)"/>
<path d="M0 0 C7.22124213 0.41830366 14.04567778 0.95461111 21 3 C21.33 4.98 21.66 6.96 22 9 C16.99276966 9.14159263 12.51942521 8.67902334 7.625 7.625 C6.40039062 7.36976562 5.17578125 7.11453125 3.9140625 6.8515625 C2.95242187 6.57054688 1.99078125 6.28953125 1 6 C0.67 5.34 0.34 4.68 0 4 C0.99 4 1.98 4 3 4 C2.01 3.67 1.02 3.34 0 3 C0 2.01 0 1.02 0 0 Z " fill="#3C4F73" transform="translate(109,88)"/>
<path d="M0 0 C0.928125 1.175625 0.928125 1.175625 1.875 2.375 C4.78418839 6.08241954 4.78418839 6.08241954 9 7.875 C12 9 12 9 13.375 10.9375 C14 13 14 13 14 16 C12.02 16 10.04 16 8 16 C8.33 15.34 8.66 14.68 9 14 C8.34 14 7.68 14 7 14 C7 14.66 7 15.32 7 16 C5.68 16 4.36 16 3 16 C2.10604671 14.09209968 1.23540666 12.17326194 0.375 10.25 C-0.11226563 9.18265625 -0.59953125 8.1153125 -1.1015625 7.015625 C-2 4 -2 4 -1.1484375 1.609375 C-0.76945312 1.07828125 -0.39046875 0.5471875 0 0 Z " fill="#16A3B2" transform="translate(96,101)"/>
<path d="M0 0 C0.33 0 0.66 0 1 0 C1.24923458 7.93396732 0.70994772 15.2441657 -1 23 C-0.29875 22.98839844 0.4025 22.97679687 1.125 22.96484375 C6.86113102 22.91028816 12.32778253 23.14381623 18 24 C16 26 16 26 13.93701172 26.22705078 C12.69588623 26.21134033 12.69588623 26.21134033 11.4296875 26.1953125 C10.53378906 26.18886719 9.63789062 26.18242187 8.71484375 26.17578125 C7.77769531 26.15902344 6.84054688 26.14226562 5.875 26.125 C4.93011719 26.11597656 3.98523438 26.10695312 3.01171875 26.09765625 C0.67422708 26.07404522 -1.66276123 26.04111516 -4 26 C-3.68889371 23.14567529 -3.37615574 20.29154475 -3.0625 17.4375 C-2.97548828 16.63763672 -2.88847656 15.83777344 -2.79882812 15.01367188 C-1.2859805 1.2859805 -1.2859805 1.2859805 0 0 Z " fill="#412D3B" transform="translate(68,163)"/>
<path d="M0 0 C0.33 0 0.66 0 1 0 C0.99363525 1.16982422 0.98727051 2.33964844 0.98071289 3.54492188 C0.96620745 7.91392634 0.99775204 12.28162708 1.04272461 16.65039062 C1.05580849 18.53576201 1.05664996 20.42126186 1.04467773 22.30664062 C0.46738148 34.61733332 0.46738148 34.61733332 5.55859375 45.28125 C7.37662026 46.92648899 7.37662026 46.92648899 9 48 C8.67 48.66 8.34 49.32 8 50 C7.236875 49.175 6.47375 48.35 5.6875 47.5 C3.24565858 44.65944803 3.24565858 44.65944803 0 45 C-1.46090788 46.5354878 -1.46090788 46.5354878 -2.6875 48.5 C-3.34298828 49.47453125 -3.34298828 49.47453125 -4.01171875 50.46875 C-4.33785156 50.9740625 -4.66398438 51.479375 -5 52 C-5.33 51.34 -5.66 50.68 -6 50 C-5.37770508 48.84435547 -4.75541016 47.68871094 -4.11425781 46.49804688 C-1.59426243 41.68027314 -1.31319019 37.39827034 -1.171875 32.03125 C-1.1331427 31.11033569 -1.0944104 30.18942139 -1.05450439 29.24060059 C-0.93588118 26.32743226 -0.84254176 23.41410151 -0.75 20.5 C-0.6735503 18.51295567 -0.59544168 16.52597443 -0.515625 14.5390625 C-0.32456203 9.69322674 -0.15615269 4.84708118 0 0 Z " fill="#9E4A6A" transform="translate(135,132)"/>
<path d="M0 0 C1.32 0.66 2.64 1.32 4 2 C3.9278125 2.61488281 3.855625 3.22976562 3.78125 3.86328125 C3.6884375 4.67152344 3.595625 5.47976562 3.5 6.3125 C3.4071875 7.11300781 3.314375 7.91351563 3.21875 8.73828125 C2.95186537 11.11896555 2.95186537 11.11896555 3 14 C-0.96 13.67 -4.92 13.34 -9 13 C-9 11.35 -9 9.7 -9 8 C-6.1875 5.9375 -6.1875 5.9375 -3 4 C-1.16699091 1.89424357 -1.16699091 1.89424357 0 0 Z " fill="#455F8C" transform="translate(140,94)"/>
<path d="M0 0 C0 0.66 0 1.32 0 2 C-14.64349802 5.87723825 -14.64349802 5.87723825 -19.74609375 3.0234375 C-23.12494856 1.48919147 -26.59745816 1.5298781 -30.25 1.375 C-30.99507813 1.33632812 -31.74015625 1.29765625 -32.5078125 1.2578125 C-34.3381524 1.16394892 -36.16904143 1.08090282 -38 1 C-38 0.67 -38 0.34 -38 0 C-37.40574219 -0.02505615 -36.81148438 -0.0501123 -36.19921875 -0.07592773 C-33.46598993 -0.19308888 -30.73300633 -0.31526273 -28 -0.4375 C-27.06542969 -0.47681641 -26.13085938 -0.51613281 -25.16796875 -0.55664062 C-2.66538176 -1.57948549 -2.66538176 -1.57948549 0 0 Z " fill="#272A32" transform="translate(153,80)"/>
<path d="M0 0 C0.03738281 0.89203125 0.07476562 1.7840625 0.11328125 2.703125 C0.17902344 3.87359375 0.24476563 5.0440625 0.3125 6.25 C0.39951172 7.99023438 0.39951172 7.99023438 0.48828125 9.765625 C1.02230316 13.1409696 1.60777329 14.60777329 4 17 C6.59855733 17.8042208 6.59855733 17.8042208 9 18 C8.01 18.66 7.02 19.32 6 20 C5.34 19.67 4.68 19.34 4 19 C4 19.66 4 20.32 4 21 C1.0335839 20.6821697 -0.01076795 19.9895397 -2.1875 17.875 C-4.30075583 14.52293902 -4.69282238 11.91651468 -5 8 C-6.32 7.67 -7.64 7.34 -9 7 C-7.35 6.67 -5.7 6.34 -4 6 C-4 4.68 -4 3.36 -4 2 C-1 0 -1 0 0 0 Z " fill="#2D2E36" transform="translate(134,45)"/>
<path d="M0 0 C-1.63727692 14.00353318 -3.31585652 28.00203391 -5 42 C-5.33 42 -5.66 42 -6 42 C-5.86160047 37.87471501 -5.7130259 33.74985892 -5.5625 29.625 C-5.52318359 28.449375 -5.48386719 27.27375 -5.44335938 26.0625 C-5.40146484 24.94101563 -5.35957031 23.81953125 -5.31640625 22.6640625 C-5.27974854 21.62717285 -5.24309082 20.5902832 -5.20532227 19.52197266 C-5 17 -5 17 -4 15 C-3.77049681 12.795636 -3.58924067 10.58607827 -3.4375 8.375 C-3.293125 6.27125 -3.14875 4.1675 -3 2 C-10.59 2 -18.18 2 -26 2 C-26 1.67 -26 1.34 -26 1 C-23.16681141 0.83049299 -20.33349012 0.66432466 -17.5 0.5 C-16.70851563 0.45230469 -15.91703125 0.40460938 -15.1015625 0.35546875 C-10.057819 0.06607363 -5.05202732 -0.04634887 0 0 Z " fill="#B0456A" transform="translate(132,118)"/>
<path d="M0 0 C0.66 0.33 1.32 0.66 2 1 C1.01 4.63 0.02 8.26 -1 12 C-0.01 12.33 0.98 12.66 2 13 C1.25 17.75 1.25 17.75 -1 20 C-3.125 19.625 -3.125 19.625 -5 19 C-5.33015923 12.2378499 -5.37864668 6.97760567 -2 1 C-1.34 0.67 -0.68 0.34 0 0 Z " fill="#26282F" transform="translate(147,35)"/>
<path d="M0 0 C1.31581942 3.94745826 0.4384849 6.00009473 -0.8984375 9.8359375 C-2.61108972 13.2005096 -4.68467107 14.30549855 -8 16 C-8.33 15.34 -8.66 14.68 -9 14 C-11.11846285 13.31270746 -11.11846285 13.31270746 -13.5625 12.875 C-14.80193359 12.62363281 -14.80193359 12.62363281 -16.06640625 12.3671875 C-16.70449219 12.24601562 -17.34257813 12.12484375 -18 12 C-18.33 12.99 -18.66 13.98 -19 15 C-19 10.38 -19 5.76 -19 1 C-18.01 2.485 -18.01 2.485 -17 4 C-16.34 3.34 -15.68 2.68 -15 2 C-14.67 4.97 -14.34 7.94 -14 11 C-9.64047765 11.4057887 -9.64047765 11.4057887 -5.875 9.4375 C-3.56038041 6.42849453 -1.80006416 3.34297629 0 0 Z " fill="#373940" transform="translate(92,59)"/>
<path d="M0 0 C0.99 0.33 1.98 0.66 3 1 C4.13677812 6.15922375 4.13677812 6.15922375 4 9 C1.84245739 11.74066224 0.11206995 13.44396502 -3 15 C-4.99960012 15.039992 -7.00047242 15.04346799 -9 15 C-9.33 14.34 -9.66 13.68 -10 13 C-9.071875 12.4225 -8.14375 11.845 -7.1875 11.25 C-3.36830028 8.55409432 -1.45042117 6.80168469 -0.3125 2.25 C-0.209375 1.5075 -0.10625 0.765 0 0 Z " fill="#198A97" transform="translate(55,104)"/>
<path d="M0 0 C4.19918185 -0.07430494 8.39801274 -0.12867413 12.59765625 -0.16479492 C14.02545846 -0.17985681 15.4532146 -0.20031062 16.88085938 -0.22631836 C18.93631373 -0.26281842 20.99115505 -0.27975166 23.046875 -0.29296875 C24.90070801 -0.31653442 24.90070801 -0.31653442 26.79199219 -0.34057617 C30.20161411 0.02140424 31.54581495 0.67709778 34 3 C30.39590461 3.05906119 26.79193691 3.09394639 23.1875 3.125 C21.68026367 3.15013672 21.68026367 3.15013672 20.14257812 3.17578125 C13.21054456 3.22036024 6.77059416 2.48266066 0 1 C0 0.67 0 0.34 0 0 Z " fill="#1B1D28" transform="translate(101,81)"/>
<path d="M0 0 C0.99 0 1.98 0 3 0 C3.33 1.65 3.66 3.3 4 5 C6.9254644 5.2236068 6.9254644 5.2236068 9 4 C7.48888889 7.77777778 7.48888889 7.77777778 4.9375 8.9375 C4.298125 9.288125 3.65875 9.63875 3 10 C2.18828772 12.55519921 2.18828772 12.55519921 2 15 C2.99 15.33 3.98 15.66 5 16 C3.68 16.33 2.36 16.66 1 17 C0.67 19.31 0.34 21.62 0 24 C0.99 24.33 1.98 24.66 3 25 C-0.3 25 -3.6 25 -7 25 C-7 24.67 -7 24.34 -7 24 C-5.02 24 -3.04 24 -1 24 C-1.04125 23.05125 -1.0825 22.1025 -1.125 21.125 C-1.14484508 16.29272342 -0.05774196 11.69372996 1 7 C-1.475 6.01 -1.475 6.01 -4 5 C-4 4.67 -4 4.34 -4 4 C-2.7934375 4.0309375 -2.7934375 4.0309375 -1.5625 4.0625 C0.93354885 4.29633621 0.93354885 4.29633621 2 3 C0.68 2.67 -0.64 2.34 -2 2 C-1.34 1.34 -0.68 0.68 0 0 Z " fill="#314566" transform="translate(129,92)"/>
<path d="M0 0 C0.91145054 2.97022221 1.01801972 5.06485586 0.44140625 8.109375 C0.30283203 8.86347656 0.16425781 9.61757812 0.02148438 10.39453125 C-0.12998047 11.17183594 -0.28144531 11.94914063 -0.4375 12.75 C-0.58509766 13.54277344 -0.73269531 14.33554688 -0.88476562 15.15234375 C-1.24903966 17.10297246 -1.62352512 19.0516893 -2 21 C-9.17857143 13.82142857 -9.17857143 13.82142857 -9.375 8.875 C-9.25125 7.59625 -9.1275 6.3175 -9 5 C-6 3 -6 3 -3.8125 3.375 C-3.214375 3.58125 -2.61625 3.7875 -2 4 C-2.99 4.66 -3.98 5.32 -5 6 C-5.36297936 7.97747122 -5.36297936 7.97747122 -5.1875 10.125 C-5.125625 11.40375 -5.06375 12.6825 -5 14 C-2.42924159 10.98552165 -1.47792934 8.64020229 -0.8125 4.75 C-0.57466797 3.41195312 -0.57466797 3.41195312 -0.33203125 2.046875 C-0.22246094 1.37140625 -0.11289063 0.6959375 0 0 Z " fill="#1D929E" transform="translate(72,130)"/>
<path d="M0 0 C0.90492187 0.02320312 1.80984375 0.04640625 2.7421875 0.0703125 C3.65226562 0.08835937 4.56234375 0.10640625 5.5 0.125 C6.19867188 0.14820312 6.89734375 0.17140625 7.6171875 0.1953125 C7.2871875 1.1853125 6.9571875 2.1753125 6.6171875 3.1953125 C5.7303125 3.2778125 4.8434375 3.3603125 3.9296875 3.4453125 C0.17018035 4.29652166 -1.60365682 5.57496572 -4.3828125 8.1953125 C-4.7128125 8.8553125 -5.0428125 9.5153125 -5.3828125 10.1953125 C-6.0428125 10.1953125 -6.7028125 10.1953125 -7.3828125 10.1953125 C-7.3828125 9.2053125 -7.3828125 8.2153125 -7.3828125 7.1953125 C-8.7028125 6.8653125 -10.0228125 6.5353125 -11.3828125 6.1953125 C-11.0528125 5.5353125 -10.7228125 4.8753125 -10.3828125 4.1953125 C-11.7028125 3.5353125 -13.0228125 2.8753125 -14.3828125 2.1953125 C-13.68414062 2.21851563 -12.98546875 2.24171875 -12.265625 2.265625 C-10.90050781 2.29269531 -10.90050781 2.29269531 -9.5078125 2.3203125 C-8.60289063 2.34351563 -7.69796875 2.36671875 -6.765625 2.390625 C-3.58512161 2.129928 -3.18050339 0.260697 0 0 Z " fill="#262831" transform="translate(113.3828125,26.8046875)"/>
<path d="M0 0 C4.64513161 0.09356443 9.2897438 0.19966409 13.93432617 0.31738281 C15.51432451 0.35566221 17.09440969 0.39051697 18.67456055 0.421875 C20.94611645 0.46754876 23.21707509 0.52553784 25.48828125 0.5859375 C26.19463211 0.59748871 26.90098297 0.60903992 27.6287384 0.62094116 C31.27741393 0.73071048 32.88213546 0.92142364 36 3 C29.07 3 22.14 3 15 3 C15.33 3.66 15.66 4.32 16 5 C10.06 4.67 4.12 4.34 -2 4 C-2 3.67 -2 3.34 -2 3 C0.64 2.67 3.28 2.34 6 2 C3.03 1.505 3.03 1.505 0 1 C0 0.67 0 0.34 0 0 Z " fill="#752F4E" transform="translate(78,186)"/>
<path d="M0 0 C0.33 0 0.66 0 1 0 C1.103125 1.093125 1.20625 2.18625 1.3125 3.3125 C1.73329605 6.83547709 1.73329605 6.83547709 3.1875 8.875 C5.69974914 10.43432705 8.09150946 10.67683438 11 11 C9.68 11.33 8.36 11.66 7 12 C7 12.66 7 13.32 7 14 C8.98 14 10.96 14 13 14 C12.67 14.66 12.34 15.32 12 16 C7.84473143 16.33242149 5.44142764 16.22487823 1.6875 14.3125 C-1.09113433 11.92158209 -2.16235875 10.53670749 -3 7 C-2.67 6.34 -2.34 5.68 -2 5 C-1.34 5 -0.68 5 0 5 C0 3.35 0 1.7 0 0 Z " fill="#2D2F38" transform="translate(75,85)"/>
<path d="M0 0 C0 0.33 0 0.66 0 1 C-1.98 1 -3.96 1 -6 1 C-6 1.99 -6 2.98 -6 4 C-4.35 4 -2.7 4 -1 4 C-1 4.33 -1 4.66 -1 5 C-2.11375 5.2475 -3.2275 5.495 -4.375 5.75 C-8.04615198 6.61005339 -8.04615198 6.61005339 -9.4375 9.125 C-9.623125 9.74375 -9.80875 10.3625 -10 11 C-10.4125 10.54625 -10.825 10.0925 -11.25 9.625 C-12.91435498 7.9077669 -12.91435498 7.9077669 -15.0625 7.0625 C-17.4725683 5.74084964 -17.88591612 4.45098454 -19 2 C-18.07767578 2.03480469 -18.07767578 2.03480469 -17.13671875 2.0703125 C-15.92435547 2.09738281 -15.92435547 2.09738281 -14.6875 2.125 C-13.48673828 2.15980469 -13.48673828 2.15980469 -12.26171875 2.1953125 C-7.77164617 1.80756875 -5.01869737 -0.18938481 0 0 Z " fill="#2F303A" transform="translate(166,19)"/>
<path d="M0 0 C5.98993047 -0.3152595 9.63560356 0.31780178 15 3 C15.07654536 7.51617599 15.10228696 11.59085217 14 16 C13.67 15.01 13.34 14.02 13 13 C10.68529088 12.27129528 8.3494053 11.60760482 6 11 C5.01 10.34 4.02 9.68 3 9 C2.67 10.32 2.34 11.64 2 13 C1.67 12.34 1.34 11.68 1 11 C-0.64363134 10.27840576 -2.31050386 9.60648579 -4 9 C-4 8.67 -4 8.34 -4 8 C-1.69 8 0.62 8 3 8 C3.33 6.68 3.66 5.36 4 4 C4.556875 4.969375 5.11375 5.93875 5.6875 6.9375 C7.68035805 10.18991279 7.68035805 10.18991279 10.75 10.875 C11.4925 10.91625 12.235 10.9575 13 11 C13.33 8.69 13.66 6.38 14 4 C9.38 3.01 4.76 2.02 0 1 C0 0.67 0 0.34 0 0 Z " fill="#742C48" transform="translate(139,110)"/>
<path d="M0 0 C0.33 1.32 0.66 2.64 1 4 C0.34 4 -0.32 4 -1 4 C-1 4.66 -1 5.32 -1 6 C-1.99 6.66 -2.98 7.32 -4 8 C-4 8.99 -4 9.98 -4 11 C-4.66 11 -5.32 11 -6 11 C-6 11.66 -6 12.32 -6 13 C-7.98 13 -9.96 13 -12 13 C-11.67 11.35 -11.34 9.7 -11 8 C-9.35 7.67 -7.7 7.34 -6 7 C-6.0928125 5.824375 -6.0928125 5.824375 -6.1875 4.625 C-6.125625 3.75875 -6.06375 2.8925 -6 2 C-3 0 -3 0 0 0 Z " fill="#8D888F" transform="translate(168,133)"/>
<path d="M0 0 C6.06370342 0.60497958 11.65514242 1.8633028 17.5 3.5625 C18.32242188 3.79646484 19.14484375 4.03042969 19.9921875 4.27148438 C21.99629058 4.84242072 23.99836591 5.42046705 26 6 C26 6.33 26 6.66 26 7 C17.1849081 6.58440013 8.60397419 6.13031092 0 4 C0 2.68 0 1.36 0 0 Z " fill="#C7416E" transform="translate(70,174)"/>
<path d="M0 0 C0.33 0 0.66 0 1 0 C0.61343468 9.83707005 0.17484579 19.65168689 -0.9375 29.4375 C-1.01210449 30.1277124 -1.08670898 30.8179248 -1.16357422 31.52905273 C-1.62177178 35.30379482 -2.40838286 38.5437268 -4 42 C-4.33 42 -4.66 42 -5 42 C-5 38.7 -5 35.4 -5 32 C-4.34 32 -3.68 32 -3 32 C-3.03480469 31.44957031 -3.06960937 30.89914063 -3.10546875 30.33203125 C-3.43850012 20.10321049 -1.58209206 10.07181123 0 0 Z " fill="#12303E" transform="translate(74,120)"/>
<path d="M0 0 C2.32613583 3.48920374 2.24247293 4.94952546 2.1875 9.0625 C2.18105469 10.12597656 2.17460937 11.18945312 2.16796875 12.28515625 C2 15 2 15 1 17 C0.34 17 -0.32 17 -1 17 C-1 16.34 -1 15.68 -1 15 C-1.66 15 -2.32 15 -3 15 C-3.02696365 13.20841511 -3.04637917 11.41671527 -3.0625 9.625 C-3.07410156 8.62726562 -3.08570313 7.62953125 -3.09765625 6.6015625 C-3 4 -3 4 -2 2 C-1.34 2 -0.68 2 0 2 C0 1.34 0 0.68 0 0 Z " fill="#393A41" transform="translate(177,45)"/>
<path d="M0 0 C-1.65167557 3.5786304 -3.78286492 6.74820188 -6 10 C-7.98 9.34 -9.96 8.68 -12 8 C-12.33 6.35 -12.66 4.7 -13 3 C-11.39743892 2.49487756 -9.79288208 1.99608373 -8.1875 1.5 C-7.29417969 1.2215625 -6.40085937 0.943125 -5.48046875 0.65625 C-3 0 -3 0 0 0 Z " fill="#36373F" transform="translate(76,18)"/>
<path d="M0 0 C-0.53069061 3.82097239 -1.49701566 6.06171403 -4 9 C-5.65 8.67 -7.3 8.34 -9 8 C-9.25 5.6875 -9.25 5.6875 -9 3 C-6.19926731 -0.00819437 -4.01012625 -0.33417719 0 0 Z " fill="#21232D" transform="translate(88,82)"/>
<path d="M0 0 C0.66 0.33 1.32 0.66 2 1 C2.76681614 9.77578475 2.76681614 9.77578475 0.88671875 12.77734375 C-0.5 14.125 -0.5 14.125 -3 16 C-4.38731566 9.94625896 -3.5403714 6.66698234 -1 1 C-0.67 0.67 -0.34 0.34 0 0 Z " fill="#24252F" transform="translate(169,45)"/>
<path d="M0 0 C0 1.98 0 3.96 0 6 C0.99 6.33 1.98 6.66 3 7 C-0.32307692 10.93846154 -0.32307692 10.93846154 -3.75 11.25 C-4.4925 11.1675 -5.235 11.085 -6 11 C-6.48951049 4.63636364 -6.48951049 4.63636364 -4.125 1.5625 C-2 0 -2 0 0 0 Z " fill="#32353F" transform="translate(106,61)"/>
<path d="M0 0 C2.475 0.99 2.475 0.99 5 2 C5 3.65 5 5.3 5 7 C3.7934375 7.309375 3.7934375 7.309375 2.5625 7.625 C1.716875 8.07875 0.87125 8.5325 0 9 C-0.89830839 12.05272465 -0.89830839 12.05272465 -1 15 C-1.33 15 -1.66 15 -2 15 C-2.125 7.25 -2.125 7.25 -1 5 C-1.99 5.99 -2.98 6.98 -4 8 C-3.40072174 4.64404172 -2.15377564 2.62198774 0 0 Z " fill="#872447" transform="translate(116,124)"/>
<path d="M0 0 C0.66 0.33 1.32 0.66 2 1 C2.25 6.625 2.25 6.625 0 10 C-3.625 10.6875 -3.625 10.6875 -7 11 C-5.5140084 6.40693504 -3.14985318 3.56430755 0 0 Z " fill="#E8EAEC" transform="translate(64,60)"/>
<path d="M0 0 C-0.5 1.875 -0.5 1.875 -2 4 C-5.59295807 5.58280091 -8.74710627 6.43851281 -12.5 5.125 C-12.995 4.75375 -13.49 4.3825 -14 4 C-11.97803833 1.97803833 -10.74135514 1.32448642 -8.125 0.3125 C-7.44695312 0.04050781 -6.76890625 -0.23148437 -6.0703125 -0.51171875 C-3.68892218 -1.07336741 -2.29569809 -0.76694846 0 0 Z " fill="#2B2D36" transform="translate(163,75)"/>
<path d="M0 0 C1.134375 0.020625 2.26875 0.04125 3.4375 0.0625 C3.1075 4.0225 2.7775 7.9825 2.4375 12.0625 C2.1075 12.0625 1.7775 12.0625 1.4375 12.0625 C1.1075 9.4225 0.7775 6.7825 0.4375 4.0625 C-0.8825 5.0525 -2.2025 6.0425 -3.5625 7.0625 C-4.2225 6.7325 -4.8825 6.4025 -5.5625 6.0625 C-4.48849278 0.07874549 -4.48849278 0.07874549 0 0 Z " fill="#1F1F29" transform="translate(73.5625,55.9375)"/>
<path d="M0 0 C1.77007714 -0.08114106 3.54122098 -0.13925505 5.3125 -0.1875 C6.29863281 -0.22230469 7.28476563 -0.25710938 8.30078125 -0.29296875 C11 0 11 0 12.8671875 1.3515625 C14 3 14 3 13.8125 5.5625 C13 8 13 8 11 10 C8 4.25 8 4.25 8 2 C5.69 2 3.38 2 1 2 C0.67 1.34 0.34 0.68 0 0 Z " fill="#23232C" transform="translate(73,11)"/>
<path d="M0 0 C0.33 0.66 0.66 1.32 1 2 C-3.455 2.495 -3.455 2.495 -8 3 C-5.69 3.33 -3.38 3.66 -1 4 C-1 4.33 -1 4.66 -1 5 C-2.47906892 5.02689216 -3.95827483 5.04634621 -5.4375 5.0625 C-6.67306641 5.07990234 -6.67306641 5.07990234 -7.93359375 5.09765625 C-10 5 -10 5 -11 4 C-12.7015625 4.0309375 -12.7015625 4.0309375 -14.4375 4.0625 C-18 4 -18 4 -20 2 C-13.2168636 0.57997892 -6.93302093 -0.22731216 0 0 Z " fill="#3F4149" transform="translate(82,9)"/>
<path d="M0 0 C0.66 0 1.32 0 2 0 C2.34469404 5.63000273 1.7166373 9.14886197 -1 14 C-3.1875 14.9375 -3.1875 14.9375 -5 15 C-4.125 9.25 -4.125 9.25 -3 7 C-2.34 7 -1.68 7 -1 7 C-0.67 4.69 -0.34 2.38 0 0 Z " fill="#282A31" transform="translate(153,31)"/>
<path d="M0 0 C1.59273572 3.18547144 0.76164121 5.60190847 0 9 C-1.875 11.4375 -1.875 11.4375 -4 13 C-4.99 13 -5.98 13 -7 13 C-6.65986985 7.55791766 -3.29703472 4.06331802 0 0 Z " fill="#272830" transform="translate(73,38)"/>
<path d="M0 0 C3.96 0 7.92 0 12 0 C9 3 9 3 6.73828125 3.29296875 C5.93777344 3.25816406 5.13726562 3.22335938 4.3125 3.1875 C2.889375 3.125625 1.46625 3.06375 0 3 C0 5.97 0 8.94 0 12 C0.66 12 1.32 12 2 12 C3.38232443 13.62626404 4.71937515 15.2925002 6 17 C5.67 17.66 5.34 18.32 5 19 C-0.75597082 14.56310583 -0.75597082 14.56310583 -1.43359375 10.22265625 C-1.44323394 2.88646789 -1.44323394 2.88646789 0 0 Z " fill="#26A3B3" transform="translate(43,119)"/>
<path d="M0 0 C2.86632997 1.05098766 3.83006643 1.66862954 5.25 4.4375 C6 7 6 7 6 10 C4.35 10 2.7 10 1 10 C0.63883954 8.5225254 0.28624952 7.04295325 -0.0625 5.5625 C-0.25972656 4.73878906 -0.45695312 3.91507812 -0.66015625 3.06640625 C-0.82837891 2.04353516 -0.82837891 2.04353516 -1 1 C-0.67 0.67 -0.34 0.34 0 0 Z " fill="#16A2AF" transform="translate(85,108)"/>
<path d="M0 0 C1.175625 0.0825 2.35125 0.165 3.5625 0.25 C4.2225 1.24 4.8825 2.23 5.5625 3.25 C4.10744642 3.77992692 2.64831873 4.2986789 1.1875 4.8125 C-0.03066406 5.24755859 -0.03066406 5.24755859 -1.2734375 5.69140625 C-3.4375 6.25 -3.4375 6.25 -5.4375 5.25 C-4.32300984 0.31440072 -4.32300984 0.31440072 0 0 Z M-9.4375 5.25 C-8.1175 5.58 -6.7975 5.91 -5.4375 6.25 C-6.4275 6.58 -7.4175 6.91 -8.4375 7.25 C-8.7675 7.91 -9.0975 8.57 -9.4375 9.25 C-9.4375 7.93 -9.4375 6.61 -9.4375 5.25 Z " fill="#20212A" transform="translate(100.4375,29.75)"/>
<path d="M0 0 C1.04039429 0.18381226 1.04039429 0.18381226 2.10180664 0.37133789 C7.25913711 1.14826716 12.36722746 1.42344839 17.57446289 1.65649414 C18.48776367 1.69967773 19.40106445 1.74286133 20.34204102 1.78735352 C22.5652428 1.89211172 24.78852996 1.99428431 27.01196289 2.09399414 C27.01196289 2.42399414 27.01196289 2.75399414 27.01196289 3.09399414 C16.12196289 3.09399414 5.23196289 3.09399414 -5.98803711 3.09399414 C-1.98803711 0.09399414 -1.98803711 0.09399414 0 0 Z " fill="#3B3D44" transform="translate(104.988037109375,81.906005859375)"/>
<path d="M0 0 C0.90457722 2.47510086 1.16843185 3.59237953 0.14453125 6.0703125 C-0.29503906 6.74835938 -0.73460938 7.42640625 -1.1875 8.125 C-1.61417969 8.80820313 -2.04085937 9.49140625 -2.48046875 10.1953125 C-4.90771273 13.07805471 -6.97001802 13.88489316 -10.69140625 14.30078125 C-11.63886719 14.30464844 -12.58632812 14.30851563 -13.5625 14.3125 C-14.51253906 14.32925781 -15.46257812 14.34601563 -16.44140625 14.36328125 C-19.35802152 13.94916641 -20.2147863 13.27810098 -22 11 C-21.27554688 11.10699219 -20.55109375 11.21398437 -19.8046875 11.32421875 C-11.95624772 12.35639683 -11.95624772 12.35639683 -5 9 C-2.69728343 6.01269202 -1.19115905 3.57347714 0 0 Z " fill="#C54671" transform="translate(114,143)"/>
<path d="M0 0 C1.45903258 0.30921884 2.91720722 0.62248799 4.375 0.9375 C5.18710938 1.11152344 5.99921875 1.28554687 6.8359375 1.46484375 C9 2 9 2 11 3 C10.67 4.98 10.34 6.96 10 9 C6.18622154 7.50172989 4.42634455 5.23512607 2 2 C1.34 1.34 0.68 0.68 0 0 Z " fill="#1F9EAC" transform="translate(64,99)"/>
<path d="M0 0 C1.32 0.33 2.64 0.66 4 1 C3.360625 1.226875 2.72125 1.45375 2.0625 1.6875 C1.381875 2.120625 0.70125 2.55375 0 3 C-0.12375 3.78375 -0.2475 4.5675 -0.375 5.375 C-1 8 -1 8 -4.0625 10.3125 C-5.031875 10.869375 -6.00125 11.42625 -7 12 C-6.67566492 6.64847115 -3.50295176 3.71719957 0 0 Z " fill="#4A5773" transform="translate(141,87)"/>
<path d="M0 0 C1.28970703 -0.03867188 1.28970703 -0.03867188 2.60546875 -0.078125 C3.33378906 0.03015625 4.06210938 0.1384375 4.8125 0.25 C5.4725 1.24 6.1325 2.23 6.8125 3.25 C3.60287044 4.31987652 1.12350738 4.45081156 -2.25 4.5 C-3.84521484 4.53867188 -3.84521484 4.53867188 -5.47265625 4.578125 C-6.36855469 4.46984375 -7.26445313 4.3615625 -8.1875 4.25 C-8.8475 3.26 -9.5075 2.27 -10.1875 1.25 C-6.79676276 0.3458034 -3.49217897 0.10107609 0 0 Z " fill="#20212A" transform="translate(126.1875,68.75)"/>
<path d="M0 0 C0.99 0 1.98 0 3 0 C2.34 4.29 1.68 8.58 1 13 C0.67 12.01 0.34 11.02 0 10 C-0.99 10.33 -1.98 10.66 -3 11 C-3.99 10.34 -4.98 9.68 -6 9 C-5.01 9 -4.02 9 -3 9 C-3 7.35 -3 5.7 -3 4 C-2.34 3.67 -1.68 3.34 -1 3 C-0.67 2.01 -0.34 1.02 0 0 Z " fill="#313239" transform="translate(77,46)"/>
<path d="M0 0 C1.18851563 0.00902344 2.37703125 0.01804687 3.6015625 0.02734375 C4.51679687 0.03894531 5.43203125 0.05054688 6.375 0.0625 C6.705 0.7225 7.035 1.3825 7.375 2.0625 C2.53258367 3.39833899 -1.55937617 4.31578119 -6.625 4.0625 C-6.625 3.4025 -6.625 2.7425 -6.625 2.0625 C-7.285 1.7325 -7.945 1.4025 -8.625 1.0625 C-5.74084117 -0.37957941 -3.20778472 -0.03144887 0 0 Z " fill="#25262F" transform="translate(64.625,11.9375)"/>
<path d="M0 0 C2.85423192 -0.02718316 5.70820015 -0.04692705 8.5625 -0.0625 C9.36236328 -0.07087891 10.16222656 -0.07925781 10.98632812 -0.08789062 C24.49670108 -0.143035 24.49670108 -0.143035 29 4 C27.58376784 4.05447047 26.16691809 4.09300508 24.75 4.125 C23.96109375 4.14820312 23.1721875 4.17140625 22.359375 4.1953125 C20 4 20 4 18.21875 3.03125 C14.86217836 1.47115332 11.39113616 1.52939447 7.75 1.375 C7.00492187 1.33632812 6.25984375 1.29765625 5.4921875 1.2578125 C3.6618476 1.16394892 1.83095857 1.08090282 0 1 C0 0.67 0 0.34 0 0 Z " fill="#464750" transform="translate(115,80)"/>
<path d="M0 0 C0.33 0 0.66 0 1 0 C1.08166849 3.00056084 1.14081551 5.9988539 1.1875 9 C1.22520508 10.25876953 1.22520508 10.25876953 1.26367188 11.54296875 C1.33182365 17.40402129 0.36728835 21.63166106 -2 27 C-3.08130697 23.64207546 -2.92420653 21.05428704 -2.44140625 17.578125 C-2.30283203 16.55332031 -2.16425781 15.52851563 -2.02148438 14.47265625 C-1.87001953 13.40917969 -1.71855469 12.34570312 -1.5625 11.25 C-1.41490234 10.17105469 -1.26730469 9.09210938 -1.11523438 7.98046875 C-0.75020795 5.31930834 -0.37822581 2.65931106 0 0 Z " fill="#492135" transform="translate(128,144)"/>
<path d="M0 0 C8.72542301 -0.12852505 17.31008699 0.20354316 26 1 C26 1.33 26 1.66 26 2 C22.79273298 2.2276125 19.5843177 2.42860225 16.375 2.625 C15.47136719 2.68945312 14.56773438 2.75390625 13.63671875 2.8203125 C8.60433074 3.11417457 4.72809683 3.05774314 0 1 C0 0.67 0 0.34 0 0 Z " fill="#3C2334" transform="translate(88,188)"/>
<path d="M0 0 C0.66 1.32 1.32 2.64 2 4 C1.505 4.598125 1.01 5.19625 0.5 5.8125 C-1.28276418 7.97029994 -1.28276418 7.97029994 -1 11 C-2.43861294 10.91253716 -3.87597508 10.80434652 -5.3125 10.6875 C-6.11300781 10.62949219 -6.91351563 10.57148437 -7.73828125 10.51171875 C-10.36272334 9.91793306 -11.30820672 9.04219706 -13 7 C-12.31292969 6.99742188 -11.62585937 6.99484375 -10.91796875 6.9921875 C-8.1597464 6.87380886 -5.67734829 6.68550463 -3 6 C-0.76113268 3.11320156 -0.76113268 3.11320156 0 0 Z " fill="#3A3A45" transform="translate(71,76)"/>
<path d="M0 0 C1.12525742 3.37577225 0.87828528 4.27858292 -0.1875 7.5625 C-0.54908203 8.74005859 -0.54908203 8.74005859 -0.91796875 9.94140625 C-2.2328139 12.44293474 -3.40563017 13.00629727 -6 14 C-6 9.60405194 -5.28351372 8.36556338 -3 4.75 C-2.443125 3.85796875 -1.88625 2.9659375 -1.3125 2.046875 C-0.6628125 1.03367188 -0.6628125 1.03367188 0 0 Z " fill="#2E2E32" transform="translate(92,59)"/>
<path d="M0 0 C2.31 0 4.62 0 7 0 C7 1.32 7 2.64 7 4 C5 5.75 5 5.75 3 7 C2.896875 6.360625 2.79375 5.72125 2.6875 5.0625 C2.460625 4.381875 2.23375 3.70125 2 3 C1.01 2.67 0.02 2.34 -1 2 C-0.67 1.34 -0.34 0.68 0 0 Z " fill="#20222C" transform="translate(76,72)"/>
<path d="M0 0 C1.32 0.66 2.64 1.32 4 2 C3.25 6.75 3.25 6.75 1 9 C-1.125 8.625 -1.125 8.625 -3 8 C-2.42655063 5.13275314 -2.1385485 4.1385485 0 2 C0 1.34 0 0.68 0 0 Z " fill="#292934" transform="translate(145,46)"/>
<path d="M0 0 C1.65 0 3.3 0 5 0 C5.125 2.375 5.125 2.375 5 5 C4.34 5.66 3.68 6.32 3 7 C1.68 7 0.36 7 -1 7 C-0.67 4.69 -0.34 2.38 0 0 Z " fill="#475D88" transform="translate(130,109)"/>
<path d="M0 0 C0.99 0.33 1.98 0.66 3 1 C3.70211894 2.65204456 4.36971413 4.31923769 5 6 C5.66 6.33 6.32 6.66 7 7 C6.67 7.99 6.34 8.98 6 10 C3.13275314 9.42655063 2.1385485 9.1385485 0 7 C-0.125 3.375 -0.125 3.375 0 0 Z " fill="#F8F7FA" transform="translate(76,85)"/>
<path d="M0 0 C2.625 -0.1875 2.625 -0.1875 5 0 C6.15941038 3.47823115 5.70820884 5.45895578 5 9 C4.67 9 4.34 9 4 9 C3.67 6.69 3.34 4.38 3 2 C0.9754262 3.93254772 -0.42105792 5.63158688 -2 8 C-4.625 8.6875 -4.625 8.6875 -7 9 C-5.76302083 7.53515625 -4.52604167 6.0703125 -3.2890625 4.60546875 C-2.10798901 3.1344954 -1.04641471 1.56962206 0 0 Z " fill="#CCCDD2" transform="translate(167,44)"/>
<path d="M0 0 C0.99 0.33 1.98 0.66 3 1 C3 1.99 3 2.98 3 4 C0.69 5.32 -1.62 6.64 -4 8 C-4.6875 6.1875 -4.6875 6.1875 -5 4 C-3.47698387 2.0418364 -2.21773977 1.10886989 0 0 Z " fill="#E6EAEC" transform="translate(91,98)"/>
<path d="M0 0 C0 0.66 0 1.32 0 2 C-0.99 2.66 -1.98 3.32 -3 4 C-3.2502157 7.08365871 -3.2502157 7.08365871 -3 10 C-3.99 10.33 -4.98 10.66 -6 11 C-7 10 -7 10 -7.375 6.625 C-7 3 -7 3 -4.625 1.0625 C-2 0 -2 0 0 0 Z " fill="#20232A" transform="translate(49,28)"/>
<path d="M0 0 C0.70189453 0.06123047 1.40378906 0.12246094 2.12695312 0.18554688 C3.8567967 0.33852624 5.58488497 0.51112602 7.3125 0.6875 C7.3125 1.0175 7.3125 1.3475 7.3125 1.6875 C1.26420514 2.58354368 -4.5769576 2.80019443 -10.6875 2.6875 C-7.9613524 -1.37560888 -4.3364724 -0.4575363 0 0 Z " fill="#C6406C" transform="translate(104.6875,168.3125)"/>
<path d="M0 0 C1.03158708 3.29642489 1.00598994 6.01016793 0.6875 9.4375 C0.60886719 10.36433594 0.53023438 11.29117188 0.44921875 12.24609375 C-0.01114679 15.06833467 -0.84138115 17.39428984 -2 20 C-2.33 20 -2.66 20 -3 20 C-3 16.7 -3 13.4 -3 10 C-2.34 10 -1.68 10 -1 10 C-1.0309375 8.3603125 -1.0309375 8.3603125 -1.0625 6.6875 C-1 3 -1 3 0 0 Z " fill="#391C31" transform="translate(72,142)"/>
<path d="M0 0 C0.66 0 1.32 0 2 0 C2.556875 0.94875 3.11375 1.8975 3.6875 2.875 C6.50206309 6.67846364 8.44939075 7.12488284 13 8 C13.33 9.98 13.66 11.96 14 14 C13.62875 13.38125 13.2575 12.7625 12.875 12.125 C11.1099486 9.75825464 11.1099486 9.75825464 8.0625 9.0625 C4.3346334 7.76915853 3.14302086 6.25421686 1 3 C0.67 2.01 0.34 1.02 0 0 Z " fill="#215F71" transform="translate(96,100)"/>
<path d="M0 0 C6.35051546 -0.36637589 6.35051546 -0.36637589 9.4375 1.375 C11 3 11 3 11 5 C9.54052295 4.93993922 8.08220728 4.8511311 6.625 4.75 C5.81289062 4.70359375 5.00078125 4.6571875 4.1640625 4.609375 C2 4 2 4 0.7109375 1.953125 C0.47632813 1.30859375 0.24171875 0.6640625 0 0 Z " fill="#E0E2E4" transform="translate(146,26)"/>
<path d="M0 0 C0.99 0.33 1.98 0.66 3 1 C2.67 3.31 2.34 5.62 2 8 C0.35 8 -1.3 8 -3 8 C-2.01 5.36 -1.02 2.72 0 0 Z " fill="#B33B62" transform="translate(150,113)"/>
<path d="M0 0 C1.32 0.66 2.64 1.32 4 2 C3.34 3.65 2.68 5.3 2 7 C1.01 7 0.02 7 -1 7 C-1.625 4.625 -1.625 4.625 -2 2 C-1.34 1.34 -0.68 0.68 0 0 Z " fill="#475F8A" transform="translate(145,98)"/>
<path d="M0 0 C0.33 0.66 0.66 1.32 1 2 C1.9590625 2.2165625 1.9590625 2.2165625 2.9375 2.4375 C5 3 5 3 7 6 C4.125 6.625 4.125 6.625 1 7 C0.34 6.34 -0.32 5.68 -1 5 C-0.625 2.375 -0.625 2.375 0 0 Z " fill="#393942" transform="translate(30,90)"/>
<path d="M0 0 C1.09658936 3.28976808 0.79953138 4.71303767 0 8 C0.99 8 1.98 8 3 8 C2.34 9.98 1.68 11.96 1 14 C-1.0625 12.375 -1.0625 12.375 -3 10 C-2.84169967 6.20079215 -1.89232997 3.28003862 0 0 Z " fill="#6C6E78" transform="translate(149,37)"/>
<path d="M0 0 C6.39075249 -0.36174071 6.39075249 -0.36174071 9 1.1875 C10 3 10 3 9.6875 5.6875 C9.460625 6.450625 9.23375 7.21375 9 8 C8.34 8 7.68 8 7 8 C7 7.01 7 6.02 7 5 C5.68 4.67 4.36 4.34 3 4 C3.33 3.34 3.66 2.68 4 2 C2.68 1.34 1.36 0.68 0 0 Z " fill="#3D3E46" transform="translate(99,29)"/>
<path d="M0 0 C0.33 0.66 0.66 1.32 1 2 C-4.94 1.67 -10.88 1.34 -17 1 C-17 0.67 -17 0.34 -17 0 C-11.2755861 -0.93672227 -5.69768835 -1.43377278 0 0 Z " fill="#55555D" transform="translate(93,189)"/>
<path d="M0 0 C2.475 0.495 2.475 0.495 5 1 C4.34 3.31 3.68 5.62 3 8 C2.01 7.67 1.02 7.34 0 7 C0 4.69 0 2.38 0 0 Z " fill="#C93F6B" transform="translate(145,112)"/>
<path d="M0 0 C4.22818271 0.30201305 6.32196752 2.95001856 9 6 C9 6.66 9 7.32 9 8 C4.56541027 6.6062718 2.12621626 4.39417765 -1 1 C-0.67 0.67 -0.34 0.34 0 0 Z " fill="#4B5E83" transform="translate(146,90)"/>
<path d="M0 0 C-0.375 2.4375 -0.375 2.4375 -1 5 C-1.99 5.495 -1.99 5.495 -3 6 C-2.67 4.68 -2.34 3.36 -2 2 C-5.00384054 2.6954344 -5.00384054 2.6954344 -8 4 C-8.96877057 6.03243548 -8.96877057 6.03243548 -9 8 C-9.25 5.6875 -9.25 5.6875 -9 3 C-6.19926731 -0.00819437 -4.01012625 -0.33417719 0 0 Z " fill="#3F4047" transform="translate(88,82)"/>
<path d="M0 0 C0.99 0 1.98 0 3 0 C2.71758359 1.46015291 2.42373386 2.91809793 2.125 4.375 C1.96257812 5.18710937 1.80015625 5.99921875 1.6328125 6.8359375 C1 9 1 9 -1 11 C-1.33 8.36 -1.66 5.72 -2 3 C-1.34 3 -0.68 3 0 3 C0 2.01 0 1.02 0 0 Z " fill="#21222C" transform="translate(165,30)"/>
<path d="M0 0 C0.99 0.33 1.98 0.66 3 1 C2.25 3.4375 2.25 3.4375 1 6 C-1 6.875 -1 6.875 -3 7 C-3.66 6.67 -4.32 6.34 -5 6 C-3.35 4.02 -1.7 2.04 0 0 Z " fill="#24252D" transform="translate(66,26)"/>
<path d="M0 0 C0 3.63 0 7.26 0 11 C-0.99 11.33 -1.98 11.66 -3 12 C-3.33 8.7 -3.66 5.4 -4 2 C-1 0 -1 0 0 0 Z " fill="#3E3E46" transform="translate(134,45)"/>
<path d="M0 0 C0 1.98 0 3.96 0 6 C-1.65 6.33 -3.3 6.66 -5 7 C-5 5.02 -5 3.04 -5 1 C-1.125 0 -1.125 0 0 0 Z " fill="#D44070" transform="translate(158,125)"/>
<path d="M0 0 C2 2 2 2 2 5 C1.01 5.495 1.01 5.495 0 6 C-1.13350534 8.01669827 -1.13350534 8.01669827 -2 10 C-2.66 9.67 -3.32 9.34 -4 9 C-2.80100302 5.9168649 -1.52299523 2.93720508 0 0 Z M-8 10 C-5 11 -5 11 -5 11 Z " fill="#D3D4D7" transform="translate(92,54)"/>
<path d="M0 0 C1.485 0.99 1.485 0.99 3 2 C3.1875 4.625 3.1875 4.625 3 7 C2.01 7.33 1.02 7.66 0 8 C-0.33 8.66 -0.66 9.32 -1 10 C-1.02689216 8.52093108 -1.04634621 7.04172517 -1.0625 5.5625 C-1.07410156 4.73878906 -1.08570313 3.91507813 -1.09765625 3.06640625 C-1 1 -1 1 0 0 Z " fill="#1F212A" transform="translate(143,42)"/>
<path d="M0 0 C0.99 0 1.98 0 3 0 C1.16508812 4.74018901 -0.91941459 9.36413251 -3 14 C-4.25955231 10.22134307 -3.48087189 8.96588214 -2.0625 5.3125 C-1.68222656 4.31863281 -1.30195312 3.32476562 -0.91015625 2.30078125 C-0.60980469 1.54152344 -0.30945313 0.78226563 0 0 Z " fill="#3D3E42" transform="translate(120,32)"/>
<path d="M0 0 C3.55780196 0.60990891 6.6828589 1.5783681 10 3 C10 3.33 10 3.66 10 4 C6.7 4 3.4 4 0 4 C0 2.68 0 1.36 0 0 Z " fill="#D53F6F" transform="translate(70,174)"/>
<path d="M0 0 C0.66 0.33 1.32 0.66 2 1 C1.360625 1.969375 0.72125 2.93875 0.0625 3.9375 C-2.38351528 8.1553638 -2.78209489 12.19519242 -3 17 C-3.33 17 -3.66 17 -4 17 C-4.3853211 6.16819572 -4.3853211 6.16819572 -2 1 C-1.34 0.67 -0.68 0.34 0 0 Z " fill="#C54772" transform="translate(88,125)"/>
<path d="M0 0 C0 3.38023517 -0.87455622 5.83468937 -2 9 C-3.32 9 -4.64 9 -6 9 C-4.68775452 5.06326356 -3.08089673 2.77280706 0 0 Z " fill="#EBEBED" transform="translate(82,76)"/>
<path d="M0 0 C2.31 0 4.62 0 7 0 C7 1.32 7 2.64 7 4 C6.01 4.495 6.01 4.495 5 5 C5 4.34 5 3.68 5 3 C3.35 3 1.7 3 0 3 C0 2.01 0 1.02 0 0 Z " fill="#20232C" transform="translate(160,20)"/>
<path d="M0 0 C2.84766278 0.49834099 3.73470379 1.20765215 5.5 3.4375 C3.52 3.7675 1.54 4.0975 -0.5 4.4375 C-0.5 3.7775 -0.5 3.1175 -0.5 2.4375 C-2.15 3.0975 -3.8 3.7575 -5.5 4.4375 C-3.19747167 0.55955754 -3.19747167 0.55955754 0 0 Z " fill="#21242C" transform="translate(45.5,12.5625)"/>
<path d="M0 0 C0.598125 0.20625 1.19625 0.4125 1.8125 0.625 C0.575 1.7078125 0.575 1.7078125 -0.6875 2.8125 C-3.43157806 5.35417366 -3.43157806 5.35417366 -3.5 8.4375 C-3.3453125 9.5203125 -3.3453125 9.5203125 -3.1875 10.625 C-3.8475 10.295 -4.5075 9.965 -5.1875 9.625 C-5.48046875 3.5703125 -5.48046875 3.5703125 -5.1875 1.625 C-2.1875 -0.375 -2.1875 -0.375 0 0 Z " fill="#0693A1" transform="translate(68.1875,133.375)"/>
<path d="M0 0 C1.65 1.32 3.3 2.64 5 4 C4.67 4.99 4.34 5.98 4 7 C3.01 7.33 2.02 7.66 1 8 C0 7 0 7 -0.0625 3.4375 C-0.041875 2.303125 -0.02125 1.16875 0 0 Z " fill="#C8436F" transform="translate(160,126)"/>
<path d="M0 0 C1.8125 0.1875 1.8125 0.1875 4 1 C5.625 3.4375 5.625 3.4375 7 6 C7.66 6.66 8.32 7.32 9 8 C6.75 7.875 6.75 7.875 4 7 C0 1.81081081 0 1.81081081 0 0 Z " fill="#74787F" transform="translate(97,99)"/>
<path d="M0 0 C0.66 0 1.32 0 2 0 C2.33 1.65 2.66 3.3 3 5 C2.01 5 1.02 5 0 5 C-2.17032476 6.43990623 -2.17032476 6.43990623 -4 8 C-3.40312566 4.65750371 -2.26396123 2.53563658 0 0 Z " fill="#6C1F3C" transform="translate(116,124)"/>
<path d="M0 0 C3.875 0.875 3.875 0.875 5 2 C5.04063832 3.66617115 5.042721 5.33388095 5 7 C4.01 7.495 4.01 7.495 3 8 C2.34 7.34 1.68 6.68 1 6 C1.66 6 2.32 6 3 6 C3 5.01 3 4.02 3 3 C2.01 3.33 1.02 3.66 0 4 C0 2.68 0 1.36 0 0 Z " fill="#8E3053" transform="translate(90,125)"/>
<path d="M0 0 C0.33 0.99 0.66 1.98 1 3 C-0.41750563 2.88490339 -1.83401169 2.75746342 -3.25 2.625 C-4.03890625 2.55539063 -4.8278125 2.48578125 -5.640625 2.4140625 C-8.085877 1.98492887 -9.84836903 1.21399362 -12 0 C-7.91556885 -1.53166168 -4.20544343 -0.63081652 0 0 Z " fill="#556384" transform="translate(122,89)"/>
<path d="M0 0 C0 0.33 0 0.66 0 1 C-1.98 1 -3.96 1 -6 1 C-6 1.99 -6 2.98 -6 4 C-4.35 4 -2.7 4 -1 4 C-1 4.33 -1 4.66 -1 5 C-3.64 5.66 -6.28 6.32 -9 7 C-8.67 5.68 -8.34 4.36 -8 3 C-8.33 2.34 -8.66 1.68 -9 1 C-6.04335481 -0.4783226 -3.25770263 -0.06032783 0 0 Z " fill="#51525B" transform="translate(166,19)"/>
<path d="M0 0 C2.91387197 0.2913872 3.82565583 0.79452294 5.75 3.0625 C6.36875 4.0215625 6.36875 4.0215625 7 5 C5.906875 4.79375 4.81375 4.5875 3.6875 4.375 C-0.0838401 3.59653475 -0.0838401 3.59653475 -3 6 C-1.125 1.125 -1.125 1.125 0 0 Z " fill="#3C1C2E" transform="translate(135,176)"/>
<path d="M0 0 C2.02350324 3.03525486 2.32124018 4.19426202 2.625 7.6875 C2.69976562 8.49574219 2.77453125 9.30398437 2.8515625 10.13671875 C2.90054688 10.75160156 2.94953125 11.36648437 3 12 C2.01 11.67 1.02 11.34 0 11 C0 7.37 0 3.74 0 0 Z " fill="#914F65" transform="translate(151,123)"/>
<path d="M0 0 C3.96 0 7.92 0 12 0 C9 3 9 3 6.51953125 3.29296875 C5.62621094 3.25816406 4.73289062 3.22335938 3.8125 3.1875 C2.91144531 3.16042969 2.01039062 3.13335937 1.08203125 3.10546875 C0.05142578 3.05326172 0.05142578 3.05326172 -1 3 C-0.67 2.01 -0.34 1.02 0 0 Z " fill="#1A9DAB" transform="translate(43,119)"/>
<path d="M0 0 C-0.66 0.391875 -1.32 0.78375 -2 1.1875 C-4.29166667 2.85416667 -4.29166667 2.85416667 -4.25 5.6875 C-4.1675 6.450625 -4.085 7.21375 -4 8 C-4.66 8 -5.32 8 -6 8 C-6.66 6.02 -7.32 4.04 -8 2 C-4.77208445 -0.1519437 -3.71599191 -0.20086443 0 0 Z " fill="#1F9BAB" transform="translate(64,100)"/>
<path d="M0 0 C1.65 0 3.3 0 5 0 C3.68 0.33 2.36 0.66 1 1 C1 1.66 1 2.32 1 3 C2.98 3 4.96 3 7 3 C6.67 3.66 6.34 4.32 6 5 C3.69 5 1.38 5 -1 5 C-0.67 3.35 -0.34 1.7 0 0 Z " fill="#42444C" transform="translate(81,96)"/>
<path d="M0 0 C1.4540625 0.0309375 1.4540625 0.0309375 2.9375 0.0625 C2.9375 1.0525 2.9375 2.0425 2.9375 3.0625 C1.2875 3.3925 -0.3625 3.7225 -2.0625 4.0625 C-2.7225 3.0725 -3.3825 2.0825 -4.0625 1.0625 C-3.0625 0.0625 -3.0625 0.0625 0 0 Z " fill="#23262E" transform="translate(38.0625,90.9375)"/>
<path d="M0 0 C0.99 0 1.98 0 3 0 C3.66 1.32 4.32 2.64 5 4 C2.69 4.33 0.38 4.66 -2 5 C-1.34 3.35 -0.68 1.7 0 0 Z " fill="#292B36" transform="translate(47,86)"/>
<path d="M0 0 C2.475 0.99 2.475 0.99 5 2 C4.67 3.32 4.34 4.64 4 6 C3.34 6 2.68 6 2 6 C1.67 6.66 1.34 7.32 1 8 C0 1.125 0 1.125 0 0 Z " fill="#325D66" transform="translate(74,100)"/>
<path d="M0 0 C-1.0625 1.5625 -1.0625 1.5625 -3 3 C-6.6875 2.6875 -6.6875 2.6875 -10 2 C-10 1.34 -10 0.68 -10 0 C-6.42355152 -1.2380014 -3.66305234 -0.74926071 0 0 Z " fill="#20222B" transform="translate(92,97)"/>
<path d="M0 0 C0.99 0.33 1.98 0.66 3 1 C2.67 1.99 2.34 2.98 2 4 C2.33 4.66 2.66 5.32 3 6 C0.03 5.505 0.03 5.505 -3 5 C-3 4.01 -3 3.02 -3 2 C-2.01 1.34 -1.02 0.68 0 0 Z " fill="#324260" transform="translate(144,88)"/>
<path d="M0 0 C2.95662966 0.22743305 4.55033688 0.61235938 6.8125 2.5625 C7.204375 3.036875 7.59625 3.51125 8 4 C4.34566236 5.21811255 3.39369816 4.56632223 0 3 C-0.66 2.67 -1.32 2.34 -2 2 C-1.34 1.34 -0.68 0.68 0 0 Z " fill="#595C64" transform="translate(150,62)"/>
<path d="M0 0 C4 4.75 4 4.75 4 7 C3.01 7.33 2.02 7.66 1 8 C0.34 7.67 -0.32 7.34 -1 7 C-0.67 4.69 -0.34 2.38 0 0 Z " fill="#2E2E38" transform="translate(34,43)"/>
<path d="M0 0 C0.99 0 1.98 0 3 0 C3.66 0.99 4.32 1.98 5 3 C3.68 4.32 2.36 5.64 1 7 C-0.0625 4.625 -0.0625 4.625 -1 2 C-0.67 1.34 -0.34 0.68 0 0 Z " fill="#34343C" transform="translate(55,40)"/>
<path d="M0 0 C1.65 0 3.3 0 5 0 C6.43088528 2.86177057 5.59991697 4.93375773 5 8 C3.5 6.6875 3.5 6.6875 2 5 C2 4.01 2 3.02 2 2 C1.34 1.34 0.68 0.68 0 0 Z " fill="#1CA0AF" transform="translate(58,133)"/>
<path d="M0 0 C3.14958831 3.42346555 3.56179109 6.44262737 4 11 C1.9656541 9.58480285 1.09589607 8.45017877 0.578125 6.01953125 C0.33726048 4.01823046 0.16467259 2.0090056 0 0 Z " fill="#24A1A9" transform="translate(92,104)"/>
<path d="M0 0 C0.33 0.99 0.66 1.98 1 3 C1.66 3 2.32 3 3 3 C2.67 3.99 2.34 4.98 2 6 C-0.0625 6.6875 -0.0625 6.6875 -2 7 C-2 6.01 -2 5.02 -2 4 C-2.66 3.67 -3.32 3.34 -4 3 C-2.68 2.01 -1.36 1.02 0 0 Z " fill="#A1A1A4" transform="translate(87,72)"/>
<path d="M0 0 C-0.66 1.65 -1.32 3.3 -2 5 C-3.65 4.67 -5.3 4.34 -7 4 C-3.375 0 -3.375 0 0 0 Z " fill="#272731" transform="translate(62,61)"/>
<path d="M0 0 C0.99 0.33 1.98 0.66 3 1 C3.33 3.64 3.66 6.28 4 9 C3.67 8.01 3.34 7.02 3 6 C2.01 6.33 1.02 6.66 0 7 C-0.99 6.34 -1.98 5.68 -3 5 C-2.01 5 -1.02 5 0 5 C0 3.35 0 1.7 0 0 Z " fill="#494A52" transform="translate(74,50)"/>
<path d="M0 0 C0.33 1.65 0.66 3.3 1 5 C0.34 5 -0.32 5 -1 5 C-1.33 5.66 -1.66 6.32 -2 7 C-2.66 5.02 -3.32 3.04 -4 1 C-2 0 -2 0 0 0 Z " fill="#20232A" transform="translate(176,42)"/>
<path d="M0 0 C1.32 1.32 2.64 2.64 4 4 C2.02 4.33 0.04 4.66 -2 5 C-2.33 6.65 -2.66 8.3 -3 10 C-3.33 10 -3.66 10 -4 10 C-4 8.02 -4 6.04 -4 4 C-2.68 3.67 -1.36 3.34 0 3 C0 2.01 0 1.02 0 0 Z " fill="#2A9AA9" transform="translate(77,115)"/>
<path d="M0 0 C4.02224515 1.34074838 5.39542862 3.7275898 8 7 C8.66 7.66 9.32 8.32 10 9 C6.71245489 8.42110619 5.06327505 7.45171589 2.75 5.0625 C2.22921875 4.53785156 1.7084375 4.01320313 1.171875 3.47265625 C0 2 0 2 0 0 Z " fill="#086B76" transform="translate(64,100)"/>
<path d="M0 0 C0.99 0.33 1.98 0.66 3 1 C1.02 3.97 1.02 3.97 -1 7 C-2.32 5.68 -3.64 4.36 -5 3 C-2.6875 1.4375 -2.6875 1.4375 0 0 Z " fill="#2F2F37" transform="translate(48,55)"/>
<path d="M0 0 C0.33 0 0.66 0 1 0 C1.33 2.64 1.66 5.28 2 8 C0.35 8 -1.3 8 -3 8 C-1.125 2.25 -1.125 2.25 0 0 Z " fill="#43444A" transform="translate(152,50)"/>
<path d="M0 0 C1.60031344 3.20062687 0.03173691 5.72271806 -1 9 C-1.99 9 -2.98 9 -4 9 C-4 5.00095031 -2.27413033 3.19799578 0 0 Z " fill="#CCCFD3" transform="translate(76,41)"/>
<path d="M0 0 C0.66 0 1.32 0 2 0 C1.67 1.65 1.34 3.3 1 5 C0.360625 5.12375 -0.27875 5.2475 -0.9375 5.375 C-1.9584375 5.684375 -1.9584375 5.684375 -3 6 C-3.33 6.66 -3.66 7.32 -4 8 C-4 7.01 -4 6.02 -4 5 C-3.34 5 -2.68 5 -2 5 C-1.34 3.35 -0.68 1.7 0 0 Z " fill="#23242C" transform="translate(35,26)"/>
<path d="M0 0 C1.36125 0.12375 1.36125 0.12375 2.75 0.25 C2.75 0.91 2.75 1.57 2.75 2.25 C-0.55 2.91 -3.85 3.57 -7.25 4.25 C-4.83923194 1.28290085 -3.90322061 0.30024774 0 0 Z " fill="#34353D" transform="translate(130.25,23.75)"/>
<path d="M0 0 C2.97 0 5.94 0 9 0 C8.01 0.495 8.01 0.495 7 1 C6.34786708 3.02463255 6.34786708 3.02463255 6 5 C5.67 4.34 5.34 3.68 5 3 C3.35636866 2.27840576 1.68949614 1.60648579 0 1 C0 0.67 0 0.34 0 0 Z " fill="#6C3F54" transform="translate(135,118)"/>
<path d="M0 0 C0.33 1.65 0.66 3.3 1 5 C-1.97 4.505 -1.97 4.505 -5 4 C-4.67 3.01 -4.34 2.02 -4 1 C-2 0 -2 0 0 0 Z " fill="#CC426E" transform="translate(141,113)"/>
<path d="M0 0 C3 3.625 3 3.625 3 7 C1.02 7 -0.96 7 -3 7 C-2.34 6.34 -1.68 5.68 -1 5 C-0.35232207 2.42938689 -0.35232207 2.42938689 0 0 Z " fill="#249DAF" transform="translate(107,110)"/>
<path d="M0 0 C0.33 0 0.66 0 1 0 C1.33 2.64 1.66 5.28 2 8 C0.35 8.33 -1.3 8.66 -3 9 C-2.67 7.68 -2.34 6.36 -2 5 C-1.34 5 -0.68 5 0 5 C0 3.35 0 1.7 0 0 Z " fill="#42454B" transform="translate(75,85)"/>
<path d="M0 0 C0.66 0.33 1.32 0.66 2 1 C2 3.15634036 1.5534764 4.92446352 1 7 C0.01 7 -0.98 7 -2 7 C-1.34 4.69 -0.68 2.38 0 0 Z " fill="#22232B" transform="translate(30,79)"/>
<path d="M0 0 C0.99 0 1.98 0 3 0 C3.33 1.32 3.66 2.64 4 4 C2.02 4.66 0.04 5.32 -2 6 C-1.34 4.02 -0.68 2.04 0 0 Z " fill="#2A2C35" transform="translate(173,60)"/>
<path d="M0 0 C2 0.3125 2 0.3125 4 1 C4.33 1.66 4.66 2.32 5 3 C3.1875 4.0625 3.1875 4.0625 1 5 C0.01 4.67 -0.98 4.34 -2 4 C-1.34 4 -0.68 4 0 4 C-0.33 3.01 -0.66 2.02 -1 1 C-0.67 0.67 -0.34 0.34 0 0 Z " fill="#1F2128" transform="translate(61,22)"/>
<path d="M0 0 C2.93453261 0.36681658 3.86437246 0.86437246 6 3 C3.39417629 3.93065133 2.35801776 4.14917407 -0.25 3.0625 C-0.8275 2.711875 -1.405 2.36125 -2 2 C-1.34 1.34 -0.68 0.68 0 0 Z " fill="#20232B" transform="translate(151,77)"/>
<path d="M0 0 C0.66 0.33 1.32 0.66 2 1 C2 2.98 2 4.96 2 7 C1.01 6.67 0.02 6.34 -1 6 C-1.042721 4.33388095 -1.04063832 2.66617115 -1 1 C-0.67 0.67 -0.34 0.34 0 0 Z " fill="#F5F6F8" transform="translate(64,60)"/>
<path d="M0 0 C0.99 0 1.98 0 3 0 C3.33 0.99 3.66 1.98 4 3 C3 4 3 4 0.4375 4.0625 C-0.7690625 4.0315625 -0.7690625 4.0315625 -2 4 C-1.34 2.68 -0.68 1.36 0 0 Z " fill="#1E202B" transform="translate(127,48)"/>
<path d="M0 0 C0.66 0.99 1.32 1.98 2 3 C1.01 3.495 1.01 3.495 0 4 C-0.66 3.34 -1.32 2.68 -2 2 C-1.34 2 -0.68 2 0 2 C0 1.34 0 0.68 0 0 Z M-4 2 C-3.34 2.66 -2.68 3.32 -2 4 C-2.66 5.32 -3.32 6.64 -4 8 C-4.66 8 -5.32 8 -6 8 C-5.34 6.02 -4.68 4.04 -4 2 Z " fill="#383841" transform="translate(37,23)"/>
<path d="M0 0 C2.31 0.66 4.62 1.32 7 2 C4.38058783 3.74627478 2.96175123 4.38722388 0 5 C-0.5625 3.0625 -0.5625 3.0625 -1 1 C-0.67 0.67 -0.34 0.34 0 0 Z " fill="#20212B" transform="translate(145,22)"/>
<path d="M0 0 C-0.33 1.65 -0.66 3.3 -1 5 C-1.66 4.34 -2.32 3.68 -3 3 C-3.99 3.495 -3.99 3.495 -5 4 C-5.33 2.68 -5.66 1.36 -6 0 C-3 -1 -3 -1 0 0 Z " fill="#A93259" transform="translate(146,112)"/>
<path d="M0 0 C3.62528568 -0.20140476 5.86501708 0.14223235 9 2 C9 2.66 9 3.32 9 4 C5.17902761 3.46930939 2.93828597 2.50298434 0 0 Z " fill="#3D3F48" transform="translate(144,78)"/>
<path d="M0 0 C3.3 0 6.6 0 10 0 C9.67 0.99 9.34 1.98 9 3 C7.68 3 6.36 3 5 3 C5 2.34 5 1.68 5 1 C3.35 1 1.7 1 0 1 C0 0.67 0 0.34 0 0 Z " fill="#3C3D46" transform="translate(111,27)"/>
</svg>
